<mxfile host="app.diagrams.net" modified="2024-06-04T05:36:09.366Z" agent="Mozilla/5.0 (Windows NT 10.0; Win64; x64) AppleWebKit/537.36 (KHTML, like Gecko) Chrome/125.0.0.0 Safari/537.36" etag="VVa_aD7McmfODult3gE8" version="24.4.13" type="github">
  <diagram name="第1頁" id="cNLtOcgkNV1Ns_6ymJjR">
    <mxGraphModel dx="646" dy="-5916" grid="1" gridSize="10" guides="1" tooltips="1" connect="1" arrows="1" fold="1" page="1" pageScale="1" pageWidth="827" pageHeight="1169" math="0" shadow="0">
      <root>
        <mxCell id="0" />
        <mxCell id="1" parent="0" />
        <mxCell id="5PI5-z5J4yYWzpDtkafK-1" value="" style="strokeWidth=1;shadow=0;dashed=0;align=center;html=1;shape=mxgraph.mockup.containers.browserWindow;rSize=0;strokeColor=none;strokeColor2=#008cff;strokeColor3=#c4c4c4;mainText=,;recursiveResize=0;spacing=0;fillColor=none;labelBackgroundColor=none;labelBorderColor=none;" parent="1" vertex="1">
          <mxGeometry x="1670" y="7020" width="1620" height="2850" as="geometry" />
        </mxCell>
        <mxCell id="5PI5-z5J4yYWzpDtkafK-2" value="&lt;span style=&quot;font-size: 14px;&quot;&gt;&lt;b&gt;1.0&amp;nbsp;&lt;/b&gt;&lt;/span&gt;" style="strokeWidth=1;shadow=0;dashed=0;align=center;html=1;shape=mxgraph.mockup.containers.anchor;fontSize=17;fontColor=#666666;align=left;whiteSpace=wrap;" parent="5PI5-z5J4yYWzpDtkafK-1" vertex="1">
          <mxGeometry x="60" y="12" width="110" height="26" as="geometry" />
        </mxCell>
        <mxCell id="5PI5-z5J4yYWzpDtkafK-3" value="&lt;font style=&quot;font-size: 12px;&quot;&gt;https://www.domain.com&lt;/font&gt;" style="strokeWidth=1;shadow=0;dashed=0;align=center;html=1;shape=mxgraph.mockup.containers.anchor;rSize=0;fontSize=17;fontColor=#666666;align=left;" parent="5PI5-z5J4yYWzpDtkafK-1" vertex="1">
          <mxGeometry x="130" y="60" width="250" height="26" as="geometry" />
        </mxCell>
        <mxCell id="5PI5-z5J4yYWzpDtkafK-4" value="&lt;font style=&quot;font-size: 22px;&quot;&gt;&lt;font style=&quot;font-size: 22px;&quot;&gt;&amp;nbsp; &amp;nbsp; &amp;nbsp; &amp;nbsp; &amp;nbsp; &amp;nbsp; &amp;nbsp; &amp;nbsp; &amp;nbsp; &amp;nbsp; &amp;nbsp; &amp;nbsp; &amp;nbsp; &amp;nbsp; &amp;nbsp; &amp;nbsp; &amp;nbsp; &amp;nbsp; &amp;nbsp; &amp;nbsp; &amp;nbsp; &amp;nbsp; &amp;nbsp; &amp;nbsp; &amp;nbsp; &amp;nbsp; &amp;nbsp; &amp;nbsp; &amp;nbsp; &amp;nbsp; &amp;nbsp; &amp;nbsp; &amp;nbsp; &amp;nbsp; &amp;nbsp; &amp;nbsp; &amp;nbsp; &amp;nbsp; &amp;nbsp; &amp;nbsp; &amp;nbsp; &amp;nbsp; &amp;nbsp; &amp;nbsp; &amp;nbsp; &amp;nbsp; &amp;nbsp; &amp;nbsp; &amp;nbsp; &amp;nbsp; &amp;nbsp;&amp;nbsp;&lt;font style=&quot;font-size: 22px;&quot;&gt;Product&amp;nbsp; &amp;nbsp; &amp;nbsp; &amp;nbsp; &amp;nbsp;&lt;/font&gt;&lt;/font&gt;&lt;span style=&quot;text-align: center;&quot;&gt;Service support&amp;nbsp; &amp;nbsp; &amp;nbsp; &amp;nbsp; &lt;/span&gt;&lt;span style=&quot;text-align: center;&quot;&gt;Downloads&amp;nbsp; &amp;nbsp; &amp;nbsp; &amp;nbsp; &amp;nbsp;&lt;/span&gt;&lt;span style=&quot;text-align: center;&quot;&gt;News&amp;nbsp; &amp;nbsp; &amp;nbsp; &amp;nbsp; &amp;nbsp;&lt;/span&gt;&lt;span style=&quot;text-align: center;&quot;&gt;About Us&lt;/span&gt;&lt;/font&gt;" style="html=1;shadow=0;dashed=0;fillColor=#f8f9fa;strokeColor=none;fontSize=16;fontColor=#1A1A1A;align=left;spacing=15;" parent="5PI5-z5J4yYWzpDtkafK-1" vertex="1">
          <mxGeometry x="1" y="110" width="1619" height="100" as="geometry" />
        </mxCell>
        <mxCell id="5PI5-z5J4yYWzpDtkafK-9" value="" style="html=1;shadow=0;dashed=0;shape=mxgraph.bootstrap.rrect;rSize=5;strokeColor=none;strokeWidth=1;fillColor=#F8F9FA;fontColor=#000000;whiteSpace=wrap;align=center;verticalAlign=middle;spacingLeft=0;fontStyle=0;fontSize=16;spacing=5;" parent="5PI5-z5J4yYWzpDtkafK-4" vertex="1">
          <mxGeometry x="1474.6514690982779" y="20.037499999999987" width="98.41945288753801" height="49.99999999999997" as="geometry" />
        </mxCell>
        <mxCell id="5PI5-z5J4yYWzpDtkafK-10" value="" style="shape=image;html=1;verticalAlign=top;verticalLabelPosition=bottom;labelBackgroundColor=#ffffff;imageAspect=0;aspect=fixed;image=https://cdn1.iconfinder.com/data/icons/iconoir-vol-2/24/language-128.png" parent="5PI5-z5J4yYWzpDtkafK-4" vertex="1">
          <mxGeometry x="1580" y="38.01" width="24" height="24" as="geometry" />
        </mxCell>
        <mxCell id="5PI5-z5J4yYWzpDtkafK-11" value="&lt;font style=&quot;font-size: 14px;&quot;&gt;Register / Login&lt;/font&gt;" style="text;html=1;align=center;verticalAlign=middle;whiteSpace=wrap;rounded=0;" parent="5PI5-z5J4yYWzpDtkafK-4" vertex="1">
          <mxGeometry x="1467.19" y="31.247500000000002" width="105.88" height="37.5" as="geometry" />
        </mxCell>
        <mxCell id="5PI5-z5J4yYWzpDtkafK-12" value="&lt;font size=&quot;1&quot; color=&quot;#cccccc&quot; style=&quot;&quot;&gt;&lt;b style=&quot;font-size: 39px;&quot;&gt;LOGO&lt;/b&gt;&lt;/font&gt;" style="text;html=1;align=center;verticalAlign=middle;whiteSpace=wrap;rounded=0;" parent="5PI5-z5J4yYWzpDtkafK-4" vertex="1">
          <mxGeometry x="49" y="13.79" width="401.48" height="86.2125" as="geometry" />
        </mxCell>
        <mxCell id="5PI5-z5J4yYWzpDtkafK-13" value="" style="verticalLabelPosition=bottom;shadow=1;dashed=0;align=center;html=1;verticalAlign=top;strokeWidth=2;shape=mxgraph.mockup.markup.line;strokeColor=#999999;direction=north;rotation=90;" parent="5PI5-z5J4yYWzpDtkafK-1" vertex="1">
          <mxGeometry x="795.5" y="-595" width="20" height="1609" as="geometry" />
        </mxCell>
        <mxCell id="5PI5-z5J4yYWzpDtkafK-14" value="&lt;span style=&quot;color: rgba(0, 0, 0, 0); font-family: monospace; font-size: 0px; text-align: start; text-wrap: nowrap;&quot;&gt;%3CmxGraphModel%3E%3Croot%3E%3CmxCell%20id%3D%220%22%2F%3E%3CmxCell%20id%3D%221%22%20parent%3D%220%22%2F%3E%3CmxCell%20id%3D%222%22%20value%3D%22%22%20style%3D%22rounded%3D0%3BwhiteSpace%3Dwrap%3Bhtml%3D1%3BstrokeColor%3Dnone%3BfillColor%3D%23EDEDED%3B%22%20vertex%3D%221%22%20parent%3D%221%22%3E%3CmxGeometry%20x%3D%22-1096.25%22%20y%3D%227402%22%20width%3D%221068.25%22%20height%3D%22441%22%20as%3D%22geometry%22%2F%3E%3C%2FmxCell%3E%3C%2Froot%3E%3C%2FmxGraphModel%3E&lt;/span&gt;" style="rounded=0;whiteSpace=wrap;html=1;strokeColor=none;fillColor=#EDEDED;" parent="5PI5-z5J4yYWzpDtkafK-1" vertex="1">
          <mxGeometry x="1.75" y="214.5" width="1618.25" height="545.5" as="geometry" />
        </mxCell>
        <mxCell id="5PI5-z5J4yYWzpDtkafK-15" value="" style="rounded=1;whiteSpace=wrap;html=1;strokeWidth=0;strokeColor=#808080;" parent="5PI5-z5J4yYWzpDtkafK-1" vertex="1">
          <mxGeometry x="708" y="702" width="240" height="7" as="geometry" />
        </mxCell>
        <mxCell id="5PI5-z5J4yYWzpDtkafK-16" value="&lt;span style=&quot;font-size: 19px; text-align: left;&quot;&gt;Generation Control Solution&lt;/span&gt;" style="text;whiteSpace=wrap;html=1;labelBackgroundColor=none;align=center;" parent="5PI5-z5J4yYWzpDtkafK-1" vertex="1">
          <mxGeometry x="708" y="670" width="240" height="32" as="geometry" />
        </mxCell>
        <mxCell id="5PI5-z5J4yYWzpDtkafK-17" value="&lt;span style=&quot;font-size: 19px; text-align: left;&quot;&gt;Data Visualization Solution&lt;/span&gt;" style="text;whiteSpace=wrap;html=1;labelBackgroundColor=none;align=center;" parent="5PI5-z5J4yYWzpDtkafK-1" vertex="1">
          <mxGeometry x="974" y="670" width="232" height="32" as="geometry" />
        </mxCell>
        <mxCell id="5PI5-z5J4yYWzpDtkafK-18" value="&lt;span style=&quot;font-size: 19px; text-align: left;&quot;&gt;Industrial IoT Solutions&lt;/span&gt;" style="text;whiteSpace=wrap;html=1;labelBackgroundColor=none;align=center;" parent="5PI5-z5J4yYWzpDtkafK-1" vertex="1">
          <mxGeometry x="408" y="670" width="311" height="32" as="geometry" />
        </mxCell>
        <mxCell id="5PI5-z5J4yYWzpDtkafK-19" value="" style="rounded=1;whiteSpace=wrap;html=1;strokeWidth=0;strokeColor=#808080;" parent="5PI5-z5J4yYWzpDtkafK-1" vertex="1">
          <mxGeometry x="972" y="702" width="240" height="7" as="geometry" />
        </mxCell>
        <mxCell id="5PI5-z5J4yYWzpDtkafK-20" value="" style="rounded=1;whiteSpace=wrap;html=1;strokeWidth=0;strokeColor=#808080;" parent="5PI5-z5J4yYWzpDtkafK-1" vertex="1">
          <mxGeometry x="443.5" y="702" width="240" height="7" as="geometry" />
        </mxCell>
        <mxCell id="5PI5-z5J4yYWzpDtkafK-21" value="" style="html=1;shadow=0;dashed=0;strokeColor=none;strokeWidth=1;fillColor=#FFFFFF;fontColor=#555555;whiteSpace=wrap;align=center;verticalAlign=middle;fontStyle=0;fontSize=40;" parent="5PI5-z5J4yYWzpDtkafK-1" vertex="1">
          <mxGeometry x="350" y="821" width="1080" height="379" as="geometry" />
        </mxCell>
        <mxCell id="5PI5-z5J4yYWzpDtkafK-22" value="&lt;span style=&quot;font-family: Poppins, sans-serif; font-size: 35px; font-style: normal; font-variant-ligatures: normal; font-variant-caps: normal; letter-spacing: normal; orphans: 2; text-align: left; text-indent: 0px; text-transform: none; widows: 2; word-spacing: 0px; -webkit-text-stroke-width: 0px; white-space: normal; text-decoration-thickness: initial; text-decoration-style: initial; text-decoration-color: initial; float: none; display: inline !important;&quot;&gt;&lt;font style=&quot;&quot; color=&quot;#b3b3b3&quot;&gt;Featured Cases&lt;/font&gt;&lt;/span&gt;" style="text;whiteSpace=wrap;html=1;labelBackgroundColor=none;" parent="5PI5-z5J4yYWzpDtkafK-21" vertex="1">
          <mxGeometry x="120.84269662921349" y="21.179411764705883" width="293.2584269662921" height="78.02941176470588" as="geometry" />
        </mxCell>
        <mxCell id="5PI5-z5J4yYWzpDtkafK-23" value="&lt;span style=&quot;color: rgb(179, 179, 179); font-size: 31px;&quot;&gt;Image&lt;/span&gt;" style="rounded=0;whiteSpace=wrap;html=1;strokeColor=none;fillColor=#EDEDED;" parent="5PI5-z5J4yYWzpDtkafK-21" vertex="1">
          <mxGeometry x="80.3932584269663" y="110.35588235294118" width="270.5056179775281" height="201.76176470588237" as="geometry" />
        </mxCell>
        <mxCell id="5PI5-z5J4yYWzpDtkafK-24" value="&lt;span style=&quot;color: rgb(179, 179, 179); font-size: 31px;&quot;&gt;Image&lt;/span&gt;" style="rounded=0;whiteSpace=wrap;html=1;strokeColor=none;fillColor=#EDEDED;" parent="5PI5-z5J4yYWzpDtkafK-21" vertex="1">
          <mxGeometry x="404.74719101123594" y="110.35588235294118" width="270.5056179775281" height="201.76176470588237" as="geometry" />
        </mxCell>
        <mxCell id="5PI5-z5J4yYWzpDtkafK-25" value="&lt;span style=&quot;color: rgb(179, 179, 179); font-size: 31px;&quot;&gt;Image&lt;/span&gt;" style="rounded=0;whiteSpace=wrap;html=1;strokeColor=none;fillColor=#EDEDED;" parent="5PI5-z5J4yYWzpDtkafK-21" vertex="1">
          <mxGeometry x="727.5842696629213" y="110.35588235294118" width="270.5056179775281" height="201.76176470588237" as="geometry" />
        </mxCell>
        <mxCell id="5PI5-z5J4yYWzpDtkafK-26" value="&lt;span style=&quot;color: rgb(26, 26, 26); font-family: Helvetica; font-size: 16px; font-style: normal; font-variant-ligatures: normal; font-variant-caps: normal; font-weight: 400; letter-spacing: normal; orphans: 2; text-align: left; text-indent: 0px; text-transform: none; widows: 2; word-spacing: 0px; -webkit-text-stroke-width: 0px; white-space: normal; background-color: rgb(251, 251, 251); text-decoration-thickness: initial; text-decoration-style: initial; text-decoration-color: initial; display: inline !important; float: none;&quot;&gt;AI 液冷控制&lt;/span&gt;" style="text;whiteSpace=wrap;html=1;" parent="5PI5-z5J4yYWzpDtkafK-21" vertex="1">
          <mxGeometry x="220" y="259" width="120" height="40" as="geometry" />
        </mxCell>
        <mxCell id="5PI5-z5J4yYWzpDtkafK-27" value="&lt;span style=&quot;color: rgb(26, 26, 26); font-family: Helvetica; font-size: 16px; font-style: normal; font-variant-ligatures: normal; font-variant-caps: normal; font-weight: 400; letter-spacing: normal; orphans: 2; text-align: left; text-indent: 0px; text-transform: none; widows: 2; word-spacing: 0px; -webkit-text-stroke-width: 0px; white-space: normal; background-color: rgb(251, 251, 251); text-decoration-thickness: initial; text-decoration-style: initial; text-decoration-color: initial; display: inline !important; float: none;&quot;&gt;汙水處理&lt;/span&gt;" style="text;whiteSpace=wrap;html=1;" parent="5PI5-z5J4yYWzpDtkafK-21" vertex="1">
          <mxGeometry x="580" y="259" width="100" height="40" as="geometry" />
        </mxCell>
        <mxCell id="5PI5-z5J4yYWzpDtkafK-28" value="&lt;span style=&quot;color: rgb(26, 26, 26); font-family: Helvetica; font-size: 16px; font-style: normal; font-variant-ligatures: normal; font-variant-caps: normal; font-weight: 400; letter-spacing: normal; orphans: 2; text-align: left; text-indent: 0px; text-transform: none; widows: 2; word-spacing: 0px; -webkit-text-stroke-width: 0px; white-space: normal; background-color: rgb(251, 251, 251); text-decoration-thickness: initial; text-decoration-style: initial; text-decoration-color: initial; display: inline !important; float: none;&quot;&gt;工廠MES應用&lt;/span&gt;" style="text;whiteSpace=wrap;html=1;" parent="5PI5-z5J4yYWzpDtkafK-21" vertex="1">
          <mxGeometry x="870" y="259" width="108.09" height="40" as="geometry" />
        </mxCell>
        <mxCell id="5PI5-z5J4yYWzpDtkafK-29" value="&lt;font color=&quot;#808080&quot;&gt;&lt;font style=&quot;font-size: 40px&quot;&gt;&amp;nbsp; &amp;nbsp; &amp;nbsp; &amp;nbsp; &amp;nbsp; &amp;nbsp;Global Partner&lt;/font&gt;&lt;br&gt;&lt;/font&gt;&amp;nbsp;&amp;nbsp;&lt;br&gt;&amp;nbsp; &amp;nbsp; &amp;nbsp; &amp;nbsp; &amp;nbsp; &amp;nbsp; &amp;nbsp; &amp;nbsp; &amp;nbsp; &amp;nbsp; &amp;nbsp; &amp;nbsp; &amp;nbsp; &amp;nbsp; &amp;nbsp; &amp;nbsp; C&lt;span style=&quot;background-color: initial;&quot;&gt;reating added value for our customers,&amp;nbsp;&lt;/span&gt;&lt;span style=&quot;background-color: initial;&quot;&gt;and growing with our partners have always been our business mottos.&lt;/span&gt;" style="html=1;shadow=0;dashed=0;shape=mxgraph.bootstrap.rrect;rSize=5;strokeColor=none;html=1;whiteSpace=wrap;fillColor=#FFFFFF;fontColor=#474E4F;align=left;spacing=15;fontSize=14;verticalAlign=top;spacingTop=23;" parent="5PI5-z5J4yYWzpDtkafK-1" vertex="1">
          <mxGeometry x="1.37" y="2258" width="1076.25" height="260" as="geometry" />
        </mxCell>
        <mxCell id="5PI5-z5J4yYWzpDtkafK-30" value="" style="shape=line;html=1;shadow=0;dashed=0;strokeColor=#CED4DA;gradientColor=inherit;fontColor=inherit;fillColor=#E9ECEF;rSize=5;perimeter=none;whiteSpace=wrap;resizeHeight=1;fontSize=14;align=left;spacing=2;labelPosition=center;verticalLabelPosition=bottom;verticalAlign=top;spacingTop=10;" parent="5PI5-z5J4yYWzpDtkafK-29" vertex="1">
          <mxGeometry width="770" height="2.9857602204869087" relative="1" as="geometry">
            <mxPoint x="139" y="98" as="offset" />
          </mxGeometry>
        </mxCell>
        <mxCell id="5PI5-z5J4yYWzpDtkafK-31" value="Check out" style="html=1;shadow=0;dashed=0;shape=mxgraph.bootstrap.rrect;rSize=5;fillColor=#b3b3b3;strokeColor=none;align=center;spacing=15;fontSize=14;fontColor=#ffffff;" parent="5PI5-z5J4yYWzpDtkafK-29" vertex="1">
          <mxGeometry y="1" width="100" height="40" relative="1" as="geometry">
            <mxPoint x="896" y="-94" as="offset" />
          </mxGeometry>
        </mxCell>
        <mxCell id="5PI5-z5J4yYWzpDtkafK-32" value="" style="html=1;shadow=0;dashed=0;shape=mxgraph.bootstrap.rrect;rSize=5;strokeColor=#DFDFDF;html=1;whiteSpace=wrap;fillColor=#F7F7F7;fontColor=#000000;" parent="5PI5-z5J4yYWzpDtkafK-1" vertex="1">
          <mxGeometry x="1" y="1740" width="1079" height="502" as="geometry" />
        </mxCell>
        <mxCell id="5PI5-z5J4yYWzpDtkafK-33" value="&lt;h5 style=&quot;text-align: center; box-sizing: border-box; margin-top: 0px; margin-bottom: 7px; font-variant-numeric: normal; font-variant-east-asian: normal; font-variant-alternates: normal; font-kerning: auto; font-optical-sizing: auto; font-feature-settings: normal; font-variation-settings: normal; font-variant-position: normal; font-stretch: normal; line-height: normal; text-decoration-thickness: initial; text-decoration-style: initial; text-decoration-color: initial;&quot;&gt;&lt;font face=&quot;Myriad, Arial, sans-serif, Microsoft Jhenghei, 微軟正黑體&quot; color=&quot;#868686&quot;&gt;&lt;span style=&quot;font-size: 19px; font-weight: 400;&quot;&gt;&lt;i&gt;Insist on making the best products&lt;/i&gt;&lt;/span&gt;&lt;/font&gt;&lt;/h5&gt;&lt;h5 style=&quot;box-sizing: border-box; margin-top: 0px; margin-bottom: 7px; font-variant-numeric: normal; font-variant-east-asian: normal; font-variant-alternates: normal; font-kerning: auto; font-optical-sizing: auto; font-feature-settings: normal; font-variation-settings: normal; font-variant-position: normal; font-stretch: normal; line-height: normal; text-decoration-thickness: initial; text-decoration-style: initial; text-decoration-color: initial;&quot;&gt;&lt;span style=&quot;font-family: Poppins, sans-serif; font-style: normal; font-variant-ligatures: normal; font-variant-caps: normal; font-weight: normal; letter-spacing: normal; text-transform: none; word-spacing: 0px; -webkit-text-stroke-width: 0px; white-space: normal; background-color: initial;&quot;&gt;&lt;font color=&quot;#808080&quot; style=&quot;font-size: 32px;&quot;&gt;30 years of relentless pursuit of excellence — Committed to providing high-quality products.&lt;/font&gt;&lt;/span&gt;&lt;br&gt;&lt;/h5&gt;&lt;p style=&quot;box-sizing: border-box; margin-top: 0px; margin-bottom: 25px; font: 400 16px / 26px &amp;quot;Open Sans&amp;quot;, sans-serif; letter-spacing: normal; orphans: 2; text-align: left; text-indent: 0px; text-transform: none; widows: 2; word-spacing: 0px; -webkit-text-stroke-width: 0px; white-space: normal; text-decoration-thickness: initial; text-decoration-style: initial; text-decoration-color: initial;&quot;&gt;&lt;font color=&quot;#999999&quot;&gt;Bring to the table win-win survival strategies to ensure proactive domination. At the end of the day, going forward, a new normal that has evolved from generation X is on the runway heading towards a streamlined cloud solution. User generated content in real-time will have multiple touchpoints for offshoring.&lt;/font&gt;&lt;/p&gt;&lt;p style=&quot;box-sizing: border-box; margin-top: 0px; margin-bottom: 25px; font: 400 16px / 26px &amp;quot;Open Sans&amp;quot;, sans-serif; letter-spacing: normal; orphans: 2; text-align: left; text-indent: 0px; text-transform: none; widows: 2; word-spacing: 0px; -webkit-text-stroke-width: 0px; white-space: normal; text-decoration-thickness: initial; text-decoration-style: initial; text-decoration-color: initial;&quot;&gt;&lt;font color=&quot;#999999&quot;&gt;Capitalize on low hanging fruit to identify a ballpark value added activity to beta test. Override the digital divide with additional clickthroughs from DevOps. Nanotechnolo-gy immersion along&amp;nbsp;&lt;/font&gt;&lt;/p&gt;" style="text;whiteSpace=wrap;html=1;labelBackgroundColor=none;" parent="5PI5-z5J4yYWzpDtkafK-32" vertex="1">
          <mxGeometry x="517.5203703703704" y="21.996210350584306" width="499.53703703703707" height="310.08347245409016" as="geometry" />
        </mxCell>
        <mxCell id="5PI5-z5J4yYWzpDtkafK-34" value="&lt;font style=&quot;font-size: 31px;&quot;&gt;&lt;span style=&quot;forced-color-adjust: none; font-family: Helvetica; font-style: normal; font-variant-ligatures: normal; font-variant-caps: normal; letter-spacing: normal; orphans: 2; text-align: center; text-indent: 0px; text-transform: none; widows: 2; word-spacing: 0px; -webkit-text-stroke-width: 0px; white-space: normal; background-color: initial; text-decoration-thickness: initial; text-decoration-style: initial; text-decoration-color: initial; color: rgb(179, 179, 179);&quot;&gt;Image&lt;/span&gt;&lt;br&gt;&lt;/font&gt;" style="rounded=0;whiteSpace=wrap;html=1;strokeColor=none;fillColor=#EDEDED;" parent="5PI5-z5J4yYWzpDtkafK-32" vertex="1">
          <mxGeometry x="69.93518518518519" y="60" width="209.80555555555557" height="180" as="geometry" />
        </mxCell>
        <mxCell id="5PI5-z5J4yYWzpDtkafK-35" value="&lt;font style=&quot;font-size: 31px;&quot;&gt;&lt;span style=&quot;forced-color-adjust: none; font-family: Helvetica; font-style: normal; font-variant-ligatures: normal; font-variant-caps: normal; letter-spacing: normal; orphans: 2; text-align: center; text-indent: 0px; text-transform: none; widows: 2; word-spacing: 0px; -webkit-text-stroke-width: 0px; white-space: normal; background-color: initial; text-decoration-thickness: initial; text-decoration-style: initial; text-decoration-color: initial; color: rgb(179, 179, 179);&quot;&gt;Image&lt;/span&gt;&lt;br&gt;&lt;/font&gt;" style="rounded=0;whiteSpace=wrap;html=1;strokeColor=none;fillColor=#EDEDED;" parent="5PI5-z5J4yYWzpDtkafK-32" vertex="1">
          <mxGeometry x="288.73240740740744" y="60" width="209.80555555555557" height="180" as="geometry" />
        </mxCell>
        <mxCell id="5PI5-z5J4yYWzpDtkafK-36" value="&lt;font style=&quot;font-size: 31px;&quot;&gt;&lt;span style=&quot;forced-color-adjust: none; font-family: Helvetica; font-style: normal; font-variant-ligatures: normal; font-variant-caps: normal; letter-spacing: normal; orphans: 2; text-align: center; text-indent: 0px; text-transform: none; widows: 2; word-spacing: 0px; -webkit-text-stroke-width: 0px; white-space: normal; background-color: initial; text-decoration-thickness: initial; text-decoration-style: initial; text-decoration-color: initial; color: rgb(179, 179, 179);&quot;&gt;Image&lt;/span&gt;&lt;br&gt;&lt;/font&gt;" style="rounded=0;whiteSpace=wrap;html=1;strokeColor=none;fillColor=#EDEDED;" parent="5PI5-z5J4yYWzpDtkafK-32" vertex="1">
          <mxGeometry x="69.93518518518519" y="250" width="209.80555555555557" height="180" as="geometry" />
        </mxCell>
        <mxCell id="5PI5-z5J4yYWzpDtkafK-37" value="&lt;font style=&quot;font-size: 31px;&quot;&gt;&lt;span style=&quot;forced-color-adjust: none; font-family: Helvetica; font-style: normal; font-variant-ligatures: normal; font-variant-caps: normal; letter-spacing: normal; orphans: 2; text-align: center; text-indent: 0px; text-transform: none; widows: 2; word-spacing: 0px; -webkit-text-stroke-width: 0px; white-space: normal; background-color: initial; text-decoration-thickness: initial; text-decoration-style: initial; text-decoration-color: initial; color: rgb(179, 179, 179);&quot;&gt;Image&lt;/span&gt;&lt;br&gt;&lt;/font&gt;" style="rounded=0;whiteSpace=wrap;html=1;strokeColor=none;fillColor=#EDEDED;" parent="5PI5-z5J4yYWzpDtkafK-32" vertex="1">
          <mxGeometry x="288.73240740740744" y="250" width="209.80555555555557" height="180" as="geometry" />
        </mxCell>
        <mxCell id="5PI5-z5J4yYWzpDtkafK-38" value="" style="html=1;shadow=0;dashed=0;shape=mxgraph.bootstrap.rrect;rSize=5;strokeColor=#DFDFDF;html=1;whiteSpace=wrap;fillColor=#f7f7f7;fontColor=#000000;" parent="5PI5-z5J4yYWzpDtkafK-1" vertex="1">
          <mxGeometry x="40" y="1200" width="1080" height="363.28" as="geometry" />
        </mxCell>
        <mxCell id="5PI5-z5J4yYWzpDtkafK-39" value="" style="html=1;shadow=0;dashed=0;shape=mxgraph.bootstrap.topButton;strokeColor=inherit;fillColor=#F7F7F7;rSize=5;perimeter=none;whiteSpace=wrap;resizeWidth=1;align=center;spacing=20;fontSize=14;" parent="5PI5-z5J4yYWzpDtkafK-38" vertex="1">
          <mxGeometry width="1079.9999999999998" height="10" relative="1" as="geometry" />
        </mxCell>
        <mxCell id="5PI5-z5J4yYWzpDtkafK-40" value="&lt;div style=&quot;text-align: left;&quot;&gt;&lt;br&gt;&lt;/div&gt;" style="perimeter=none;html=1;whiteSpace=wrap;fillColor=none;strokeColor=none;resizeWidth=1;verticalAlign=top;align=center;spacing=20;spacingTop=-10;fontSize=14;" parent="5PI5-z5J4yYWzpDtkafK-38" vertex="1">
          <mxGeometry width="1024.4188110026619" height="48" relative="1" as="geometry">
            <mxPoint x="21" y="40" as="offset" />
          </mxGeometry>
        </mxCell>
        <mxCell id="5PI5-z5J4yYWzpDtkafK-41" value="&lt;div style=&quot;&quot;&gt;&lt;span style=&quot;background-color: initial;&quot;&gt;&lt;font style=&quot;&quot; color=&quot;#808080&quot;&gt;&lt;span style=&quot;font-size: 30px;&quot;&gt;Explore our application core software&lt;/span&gt;&lt;/font&gt;&lt;/span&gt;&lt;/div&gt;" style="text;whiteSpace=wrap;html=1;fontColor=default;labelBackgroundColor=none;align=left;" parent="5PI5-z5J4yYWzpDtkafK-38" vertex="1">
          <mxGeometry x="120.00000000000001" y="32" width="838.78" height="38.09" as="geometry" />
        </mxCell>
        <mxCell id="5PI5-z5J4yYWzpDtkafK-42" value="" style="shape=line;html=1;shadow=0;dashed=0;strokeColor=#CED4DA;gradientColor=inherit;fontColor=inherit;fillColor=#E9ECEF;rSize=5;perimeter=none;whiteSpace=wrap;resizeHeight=1;fontSize=14;align=left;spacing=2;labelPosition=center;verticalLabelPosition=bottom;verticalAlign=top;spacingTop=10;" parent="5PI5-z5J4yYWzpDtkafK-38" vertex="1">
          <mxGeometry x="130.60495327102802" y="79.99999999999991" width="755.8485981308411" height="3.699999999999996" as="geometry" />
        </mxCell>
        <mxCell id="5PI5-z5J4yYWzpDtkafK-43" value="&lt;span style=&quot;font-size: 18px;&quot;&gt;&lt;font color=&quot;#d4d4d4&quot;&gt;We provide complete application solutions, ranging from human-machine interface design tools, device communication, IoT integration, remote device management and event push notifications, etc.&lt;/font&gt;&lt;/span&gt;" style="text;whiteSpace=wrap;html=1;" parent="5PI5-z5J4yYWzpDtkafK-38" vertex="1">
          <mxGeometry x="120.00000000000003" y="90" width="900" height="60" as="geometry" />
        </mxCell>
        <mxCell id="5PI5-z5J4yYWzpDtkafK-44" value="&lt;span style=&quot;font-size: 18px;&quot;&gt;HMI screen editor&lt;/span&gt;" style="text;whiteSpace=wrap;html=1;" parent="5PI5-z5J4yYWzpDtkafK-38" vertex="1">
          <mxGeometry x="240" y="180" width="157.79" height="40" as="geometry" />
        </mxCell>
        <mxCell id="5PI5-z5J4yYWzpDtkafK-45" value="&lt;span style=&quot;color: rgb(153, 153, 153); font-family: Helvetica; font-size: 16px; font-variant-ligatures: normal; font-variant-caps: normal; letter-spacing: normal; orphans: 2; text-align: center; text-indent: 0px; text-transform: none; widows: 2; word-spacing: 0px; -webkit-text-stroke-width: 0px; white-space: normal; background-color: rgb(251, 251, 251); text-decoration-thickness: initial; text-decoration-style: initial; text-decoration-color: initial; float: none; display: inline !important;&quot;&gt;&lt;span&gt;User Manual&lt;/span&gt;&lt;/span&gt;&lt;div style=&quot;font-size: 16px;&quot;&gt;&lt;span style=&quot;color: rgb(153, 153, 153); font-family: Helvetica; font-size: 16px; font-variant-ligatures: normal; font-variant-caps: normal; letter-spacing: normal; orphans: 2; text-align: center; text-indent: 0px; text-transform: none; widows: 2; word-spacing: 0px; -webkit-text-stroke-width: 0px; white-space: normal; background-color: rgb(251, 251, 251); text-decoration-thickness: initial; text-decoration-style: initial; text-decoration-color: initial; float: none; display: inline !important;&quot;&gt;&lt;span style=&quot;font-size: 16px;&quot;&gt;&lt;span&gt;PLC Manual&lt;/span&gt;&lt;/span&gt;&lt;br style=&quot;font-size: 16px;&quot;&gt;&lt;/span&gt;&lt;/div&gt;&lt;div style=&quot;font-size: 16px;&quot;&gt;&lt;span style=&quot;color: rgb(153, 153, 153); font-family: Helvetica; font-size: 16px; font-variant-ligatures: normal; font-variant-caps: normal; letter-spacing: normal; orphans: 2; text-align: center; text-indent: 0px; text-transform: none; widows: 2; word-spacing: 0px; -webkit-text-stroke-width: 0px; white-space: normal; background-color: rgb(251, 251, 251); text-decoration-thickness: initial; text-decoration-style: initial; text-decoration-color: initial; float: none; display: inline !important;&quot;&gt;&lt;span style=&quot;font-size: 16px;&quot;&gt;&lt;span&gt;CodeSyS&lt;/span&gt;&lt;/span&gt;&lt;/span&gt;&lt;/div&gt;" style="text;whiteSpace=wrap;html=1;fontSize=16;fontStyle=0" parent="5PI5-z5J4yYWzpDtkafK-38" vertex="1">
          <mxGeometry x="239.99999999999997" y="230" width="120" height="40" as="geometry" />
        </mxCell>
        <mxCell id="5PI5-z5J4yYWzpDtkafK-46" value="&lt;span style=&quot;color: rgb(153, 153, 153); font-family: Helvetica; font-size: 16px; font-style: normal; font-variant-ligatures: normal; font-variant-caps: normal; letter-spacing: normal; orphans: 2; text-align: center; text-indent: 0px; text-transform: none; widows: 2; word-spacing: 0px; -webkit-text-stroke-width: 0px; white-space: normal; background-color: rgb(251, 251, 251); text-decoration-thickness: initial; text-decoration-style: initial; text-decoration-color: initial; float: none; display: inline !important;&quot;&gt;EasyBuilder Pro&lt;/span&gt;" style="text;whiteSpace=wrap;html=1;fontSize=16;" parent="5PI5-z5J4yYWzpDtkafK-38" vertex="1">
          <mxGeometry x="240" y="210" width="120" height="40" as="geometry" />
        </mxCell>
        <mxCell id="5PI5-z5J4yYWzpDtkafK-47" value="&lt;span style=&quot;color: rgb(153, 153, 153); font-family: Helvetica; font-size: 16px; font-style: normal; font-variant-ligatures: normal; font-variant-caps: normal; letter-spacing: normal; orphans: 2; text-align: center; text-indent: 0px; text-transform: none; widows: 2; word-spacing: 0px; -webkit-text-stroke-width: 0px; white-space: normal; background-color: rgb(251, 251, 251); text-decoration-thickness: initial; text-decoration-style: initial; text-decoration-color: initial; float: none; display: inline !important;&quot;&gt;MQTT:&lt;/span&gt;&lt;div style=&quot;font-size: 16px;&quot;&gt;&lt;span style=&quot;color: rgb(153, 153, 153); font-family: Helvetica; font-size: 16px; font-style: normal; font-variant-ligatures: normal; font-variant-caps: normal; letter-spacing: normal; orphans: 2; text-align: center; text-indent: 0px; text-transform: none; widows: 2; word-spacing: 0px; -webkit-text-stroke-width: 0px; white-space: normal; background-color: rgb(251, 251, 251); text-decoration-thickness: initial; text-decoration-style: initial; text-decoration-color: initial; float: none; display: inline !important;&quot;&gt;&amp;nbsp; AWS、Azure&lt;/span&gt;&lt;/div&gt;&lt;div style=&quot;font-size: 16px;&quot;&gt;&lt;span style=&quot;color: rgb(153, 153, 153); font-family: Helvetica; font-size: 16px; font-style: normal; font-variant-ligatures: normal; font-variant-caps: normal; letter-spacing: normal; orphans: 2; text-align: center; text-indent: 0px; text-transform: none; widows: 2; word-spacing: 0px; -webkit-text-stroke-width: 0px; white-space: normal; background-color: rgb(251, 251, 251); text-decoration-thickness: initial; text-decoration-style: initial; text-decoration-color: initial; float: none; display: inline !important;&quot;&gt;&amp;nbsp;Sparkplug B&lt;/span&gt;&lt;div style=&quot;font-size: 16px;&quot;&gt;&lt;span style=&quot;color: rgb(153, 153, 153); font-size: 16px; text-align: center;&quot;&gt;OPC UA&lt;/span&gt;&lt;br style=&quot;font-size: 16px;&quot;&gt;&lt;/div&gt;&lt;/div&gt;&lt;div style=&quot;font-size: 16px;&quot;&gt;&lt;span style=&quot;color: rgb(153, 153, 153); font-size: 16px; text-align: center;&quot;&gt;SQL&lt;/span&gt;&lt;span style=&quot;color: rgb(153, 153, 153); font-size: 16px; font-weight: 700; text-align: center;&quot;&gt;&lt;br style=&quot;font-size: 16px;&quot;&gt;&lt;/span&gt;&lt;/div&gt;" style="text;whiteSpace=wrap;html=1;fontSize=16;" parent="5PI5-z5J4yYWzpDtkafK-38" vertex="1">
          <mxGeometry x="584" y="210" width="230" height="102" as="geometry" />
        </mxCell>
        <mxCell id="5PI5-z5J4yYWzpDtkafK-48" value="&lt;font style=&quot;font-size: 18px;&quot;&gt;Industrial IoT&lt;/font&gt;" style="text;whiteSpace=wrap;html=1;" parent="5PI5-z5J4yYWzpDtkafK-38" vertex="1">
          <mxGeometry x="584" y="180" width="137.79" height="40" as="geometry" />
        </mxCell>
        <mxCell id="5PI5-z5J4yYWzpDtkafK-49" value="&lt;span style=&quot;font-size: 18px;&quot;&gt;Weincloud service&lt;/span&gt;&lt;div&gt;&lt;br&gt;&lt;/div&gt;" style="text;whiteSpace=wrap;html=1;" parent="5PI5-z5J4yYWzpDtkafK-38" vertex="1">
          <mxGeometry x="878" y="180" width="172" height="40" as="geometry" />
        </mxCell>
        <mxCell id="5PI5-z5J4yYWzpDtkafK-50" value="&lt;div style=&quot;font-size: 16px;&quot;&gt;&lt;span style=&quot;color: rgb(153, 153, 153); text-align: center;&quot;&gt;&lt;font style=&quot;font-size: 16px;&quot;&gt;Dashboard&lt;/font&gt;&lt;/span&gt;&lt;/div&gt;&lt;div style=&quot;font-size: 16px;&quot;&gt;&lt;span style=&quot;color: rgb(153, 153, 153); text-align: center;&quot;&gt;&lt;font style=&quot;font-size: 16px;&quot;&gt;Easyaccess&lt;/font&gt;&lt;/span&gt;&lt;/div&gt;" style="text;whiteSpace=wrap;html=1;" parent="5PI5-z5J4yYWzpDtkafK-38" vertex="1">
          <mxGeometry x="880.46" y="210" width="189.54" height="102" as="geometry" />
        </mxCell>
        <mxCell id="5PI5-z5J4yYWzpDtkafK-51" value="&lt;font style=&quot;font-size: 15px;&quot; color=&quot;#1a1a1a&quot;&gt;Image&lt;/font&gt;" style="strokeColor=none;html=1;whiteSpace=wrap;fillColor=#EDEDED;fontColor=#DEE2E6;" parent="5PI5-z5J4yYWzpDtkafK-38" vertex="1">
          <mxGeometry x="110" y="182" width="120" height="130" as="geometry" />
        </mxCell>
        <mxCell id="5PI5-z5J4yYWzpDtkafK-52" value="&lt;font style=&quot;font-size: 15px;&quot; color=&quot;#1a1a1a&quot;&gt;Image&lt;/font&gt;" style="strokeColor=none;html=1;whiteSpace=wrap;fillColor=#EDEDED;fontColor=#DEE2E6;" parent="5PI5-z5J4yYWzpDtkafK-38" vertex="1">
          <mxGeometry x="454" y="182" width="120" height="130" as="geometry" />
        </mxCell>
        <mxCell id="5PI5-z5J4yYWzpDtkafK-53" value="&lt;font style=&quot;font-size: 15px;&quot; color=&quot;#1a1a1a&quot;&gt;Image&lt;/font&gt;" style="strokeColor=none;html=1;whiteSpace=wrap;fillColor=#EDEDED;fontColor=#DEE2E6;" parent="5PI5-z5J4yYWzpDtkafK-38" vertex="1">
          <mxGeometry x="750" y="182" width="120" height="130" as="geometry" />
        </mxCell>
        <mxCell id="5PI5-z5J4yYWzpDtkafK-56" value="&lt;span style=&quot;font-family: Helvetica; font-style: normal; font-variant-ligatures: normal; font-variant-caps: normal; font-weight: 400; letter-spacing: normal; orphans: 2; text-align: center; text-indent: 0px; text-transform: none; widows: 2; word-spacing: 0px; -webkit-text-stroke-width: 0px; white-space: normal; text-decoration-thickness: initial; text-decoration-style: initial; text-decoration-color: initial; float: none; display: inline !important;&quot;&gt;&lt;font style=&quot;font-size: 250px;&quot; color=&quot;#f7f7f7&quot;&gt;Image&lt;/font&gt;&lt;/span&gt;" style="text;whiteSpace=wrap;html=1;labelBackgroundColor=none;fontColor=#999999;" parent="5PI5-z5J4yYWzpDtkafK-1" vertex="1">
          <mxGeometry x="490" y="300" width="905" height="339" as="geometry" />
        </mxCell>
        <mxCell id="5PI5-z5J4yYWzpDtkafK-57" value="" style="group" parent="5PI5-z5J4yYWzpDtkafK-1" connectable="0" vertex="1">
          <mxGeometry x="-0.38000000000010914" y="2518" width="1080" height="332" as="geometry" />
        </mxCell>
        <mxCell id="5PI5-z5J4yYWzpDtkafK-58" value="" style="rounded=0;whiteSpace=wrap;html=1;strokeColor=none;fillColor=#F7F7F7;" parent="5PI5-z5J4yYWzpDtkafK-57" vertex="1">
          <mxGeometry width="1080" height="332" as="geometry" />
        </mxCell>
        <mxCell id="5PI5-z5J4yYWzpDtkafK-59" value="&lt;div style=&quot;&quot;&gt;&lt;div&gt;&lt;font color=&quot;#999999&quot;&gt;&lt;span style=&quot;font-size: 16px;&quot;&gt;&lt;br&gt;&lt;/span&gt;&lt;/font&gt;&lt;/div&gt;&lt;div&gt;&lt;font color=&quot;#999999&quot;&gt;&lt;span style=&quot;font-size: 16px;&quot;&gt;in October 1995, with Taiwan as its global research and development headquarters. The company is dedicated to the development and manufacturing of Human Machine Interfaces , industrial IoT, and remote monitoring devices.&lt;/span&gt;&lt;/font&gt;&lt;/div&gt;&lt;/div&gt;" style="strokeColor=none;fillColor=none;fontColor=#000000;perimeter=none;whiteSpace=wrap;resizeWidth=1;align=left;spacing=2;fontSize=14;verticalAlign=top;html=1;" parent="5PI5-z5J4yYWzpDtkafK-57" vertex="1">
          <mxGeometry x="110" y="67.5" width="440" height="249.87" as="geometry" />
        </mxCell>
        <mxCell id="5PI5-z5J4yYWzpDtkafK-60" value="&lt;font style=&quot;font-size: 14px;&quot;&gt;Copyright© 2014 ABSLabs., Inc. All rights reserved.&amp;nbsp; &amp;nbsp;|&amp;nbsp; &amp;nbsp; Privacy policy&lt;/font&gt;" style="text;html=1;align=center;verticalAlign=middle;whiteSpace=wrap;rounded=0;" parent="5PI5-z5J4yYWzpDtkafK-57" vertex="1">
          <mxGeometry x="102.5" y="267.67" width="480" height="30" as="geometry" />
        </mxCell>
        <UserObject label="&lt;font color=&quot;#808080&quot; style=&quot;forced-color-adjust: none; font-family: Helvetica; font-style: normal; font-variant-ligatures: normal; font-variant-caps: normal; letter-spacing: normal; orphans: 2; text-align: left; text-indent: 0px; text-transform: none; widows: 2; word-spacing: 0px; -webkit-text-stroke-width: 0px; white-space: normal; text-decoration-thickness: initial; text-decoration-style: initial; text-decoration-color: initial; font-size: 19px;&quot;&gt;&lt;b style=&quot;&quot;&gt;&lt;font style=&quot;forced-color-adjust: none; font-size: 19px;&quot;&gt;Contact us&lt;/font&gt;&lt;br style=&quot;forced-color-adjust: none;&quot;&gt;&lt;/b&gt;&lt;/font&gt;&lt;div style=&quot;forced-color-adjust: none; color: rgb(0, 0, 0); font-family: Helvetica; font-style: normal; font-variant-ligatures: normal; font-variant-caps: normal; font-weight: 400; letter-spacing: normal; orphans: 2; text-align: left; text-indent: 0px; text-transform: none; widows: 2; word-spacing: 0px; -webkit-text-stroke-width: 0px; white-space: normal; text-decoration-thickness: initial; text-decoration-style: initial; text-decoration-color: initial;&quot;&gt;&lt;font color=&quot;#999999&quot; style=&quot;forced-color-adjust: none;&quot;&gt;&lt;font style=&quot;font-size: 18px;&quot;&gt;Address... Zhonghe Dist., New Taipei City 235029, Taiwan (R.O.C.)&lt;/font&gt;&lt;br&gt;&lt;br&gt;&lt;/font&gt;&lt;/div&gt;&lt;div style=&quot;forced-color-adjust: none; color: rgb(0, 0, 0); font-family: Helvetica; font-style: normal; font-variant-ligatures: normal; font-variant-caps: normal; font-weight: 400; letter-spacing: normal; orphans: 2; text-align: left; text-indent: 0px; text-transform: none; widows: 2; word-spacing: 0px; -webkit-text-stroke-width: 0px; white-space: normal; text-decoration-thickness: initial; text-decoration-style: initial; text-decoration-color: initial; font-size: 17px;&quot;&gt;&lt;font color=&quot;#999999&quot; style=&quot;forced-color-adjust: none; font-size: 17px;&quot;&gt;&amp;nbsp; &amp;nbsp; &amp;nbsp;+886(2) 0000 0000&lt;br&gt;&lt;br&gt;&lt;/font&gt;&lt;/div&gt;&lt;div style=&quot;forced-color-adjust: none; color: rgb(0, 0, 0); font-family: Helvetica; font-style: normal; font-variant-ligatures: normal; font-variant-caps: normal; font-weight: 400; letter-spacing: normal; orphans: 2; text-align: left; text-indent: 0px; text-transform: none; widows: 2; word-spacing: 0px; -webkit-text-stroke-width: 0px; white-space: normal; text-decoration-thickness: initial; text-decoration-style: initial; text-decoration-color: initial; font-size: 17px;&quot;&gt;&lt;font color=&quot;#999999&quot; style=&quot;forced-color-adjust: none; font-size: 17px;&quot;&gt;&amp;nbsp; &amp;nbsp; &amp;nbsp;salesmail@domain.com&lt;/font&gt;&lt;/div&gt;" id="5PI5-z5J4yYWzpDtkafK-61">
          <mxCell style="text;whiteSpace=wrap;html=1;fillColor=none;labelBackgroundColor=none;" parent="5PI5-z5J4yYWzpDtkafK-57" vertex="1">
            <mxGeometry x="690" y="42" width="330" height="188" as="geometry" />
          </mxCell>
        </UserObject>
        <mxCell id="5PI5-z5J4yYWzpDtkafK-62" value="" style="endArrow=none;html=1;rounded=0;strokeColor=#D4D4D4;" parent="5PI5-z5J4yYWzpDtkafK-57" edge="1">
          <mxGeometry width="50" height="50" relative="1" as="geometry">
            <mxPoint x="110" y="82.1299999999992" as="sourcePoint" />
            <mxPoint x="550" y="82" as="targetPoint" />
          </mxGeometry>
        </mxCell>
        <mxCell id="5PI5-z5J4yYWzpDtkafK-63" value="" style="group" parent="5PI5-z5J4yYWzpDtkafK-57" connectable="0" vertex="1">
          <mxGeometry x="697" y="252" width="189.23000000000002" height="33.0000000000008" as="geometry" />
        </mxCell>
        <mxCell id="5PI5-z5J4yYWzpDtkafK-64" value="" style="shape=image;html=1;verticalAlign=top;verticalLabelPosition=bottom;labelBackgroundColor=#ffffff;imageAspect=0;aspect=fixed;image=https://cdn3.iconfinder.com/data/icons/social-media-black-white-2/512/BW_Facebook_glyph_svg-128.png;" parent="5PI5-z5J4yYWzpDtkafK-63" vertex="1">
          <mxGeometry y="0.5000000000007958" width="32.5" height="32.5" as="geometry" />
        </mxCell>
        <mxCell id="5PI5-z5J4yYWzpDtkafK-65" value="" style="shape=image;html=1;verticalAlign=top;verticalLabelPosition=bottom;labelBackgroundColor=#ffffff;imageAspect=0;aspect=fixed;image=https://cdn2.iconfinder.com/data/icons/social-media-2421/512/Twitter-128.png" parent="5PI5-z5J4yYWzpDtkafK-63" vertex="1">
          <mxGeometry x="39.5" y="0.5000000000007958" width="32.5" height="32.5" as="geometry" />
        </mxCell>
        <mxCell id="5PI5-z5J4yYWzpDtkafK-66" value="" style="shape=image;html=1;verticalAlign=top;verticalLabelPosition=bottom;labelBackgroundColor=#ffffff;imageAspect=0;aspect=fixed;image=https://cdn1.iconfinder.com/data/icons/social-media-circle-7/512/Circled_Youtube_svg-128.png" parent="5PI5-z5J4yYWzpDtkafK-63" vertex="1">
          <mxGeometry x="118" width="32.23" height="32.23" as="geometry" />
        </mxCell>
        <mxCell id="5PI5-z5J4yYWzpDtkafK-67" value="" style="shape=image;html=1;verticalAlign=top;verticalLabelPosition=bottom;labelBackgroundColor=#ffffff;imageAspect=0;aspect=fixed;image=https://cdn1.iconfinder.com/data/icons/social-media-circle-7/512/Circled_Linkedin_svg-128.png" parent="5PI5-z5J4yYWzpDtkafK-63" vertex="1">
          <mxGeometry x="77" y="0.25" width="31.98" height="31.98" as="geometry" />
        </mxCell>
        <mxCell id="5PI5-z5J4yYWzpDtkafK-68" value="" style="group" parent="5PI5-z5J4yYWzpDtkafK-63" connectable="0" vertex="1">
          <mxGeometry x="157" y="0.77000000000087" width="32.22999999999999" height="32.22999999999956" as="geometry" />
        </mxCell>
        <mxCell id="5PI5-z5J4yYWzpDtkafK-69" value="" style="ellipse;whiteSpace=wrap;html=1;aspect=fixed;fillColor=#1A1A1A;" parent="5PI5-z5J4yYWzpDtkafK-68" vertex="1">
          <mxGeometry width="32.23" height="32.23" as="geometry" />
        </mxCell>
        <mxCell id="5PI5-z5J4yYWzpDtkafK-70" value="" style="shape=image;verticalLabelPosition=bottom;labelBackgroundColor=default;verticalAlign=top;aspect=fixed;imageAspect=0;image=data:image/png,iVBORw0KGgoAAAANSUhEUgAAAgAAAAIACAYAAAD0eNT6AAAACXBIWXMAAA7EAAAOxAGVKw4bAAAgAElEQVR4nOzdfWzd133n+fdPIAQtoSE4XK6i0aoKoVFVVdUoGldRVVVVVUXjOIrjKHbiPDi266apN2sEQVAURbEoBkGxKBZBEASG1+tx3cR2kzh+iuMoiqu4juqoHq2qqqqqUVVVo1VVQeVwuSzBcgkuQdyzf3zPT7yi+HAffveec36/zwu4JqkH8pi6vOd7vud7vgdERERERERERERERKSEstADEJFbOedWAxuA9cAQ8G5grf94pf9jq4EBYEUbX2oUmFzk964Ds/N+bRiY8e//i//7ADXgWt37I8C0/3g8y7LxNsYoIh2iAECkw5xz8yfpAWxi34hN6u/2b9djE/8a2pvYYzQD3MAChBt1H89gAcM/YwHGMBZYjPr3bwYhWZbVujtkkXJTACBSgAUm+T5gi3/8W2BT3aOP8k3wnTCLBQJXgIvAXwNngQvAWP6HFBiItEYBgEgT5k30K7BU/CZgO/CzwGb//nqgp+sDrIZZ4CoWDPw1cM4/rmMZBkCBgchyFACILKJuss/fbgK2Au8Btvn3NzK3Ly/h1LCswDksMPgb4Axwmbm6hRooMBDJKQAQ8fyEn0/2/cBO4BeB3cAOYBCl7lMzhW0ZnGMuW3AeyAsTawoIpKoUAEglzVvdr8BW8ruAX/BvtwGrwoxOOmwKCwLeBv4MOI1lD2ooIJAKUQAglVC3ul8B9GLFeXuwCX83sA7t2VfVFLZdcBwLCM5gxyMVEEipKQCQ0vKTfo9/bAX2A+/HUvv94UYmkZvEsgInsIDgLDCBAgIpGQUAUhp1q/webL9+D/A+4CB2vl4rfGnFBBYQ/BjbNjiPZQ1mUUAgCVMAIElzzvVgk/4qbN9+H3Or/NUBhyblVMMKCE9h2YHjWEAwA8wqGJCUKACQ5PhJvwfrmLcH+ACW3tc+vnTbDHAJeB34PgoGJCEKACQJ8yb9/cCH/duBcKMSucUs1nfgKPADrJhwGgsG5t+rIBKcAgCJlp/0V2L7+fvRpC/pmMVaGL8B/Am2ZTCJggGJiAIAiUZdEV8+6e8DPuLfDgYcmkg78tsS38C2CU5hRYQzCgYkJAUAEty89P4+5lb6mvSlbGrYLYdvAt8DTmJFhQoGpOsUAEgQdWf0e7E2ux8H7sYK+dRuV6ogDwaOAS9hwUC+TaACQuk4BQDSVX61vwq7Le8u4JPY7XlquytVNoOdIHgeKyK8jrIC0mEKAKTj/Gp/JXYufzc26R/EUv4icqthLAj4DtaAKK8XUFZACqUAQDrGObcSW9lvAg5haf4t6Ky+SCOmsdsLn8cKCIeBaWUFpCgKAKRQdav9fmAv8CBW2Kfe+yKtuw4cwWoFzqKsgBRAAYAUwk/8q7AivkPAw1hr3pUhxyVSMvnNhd/EThIoKyAtUwAgbfFFfb1Ymv9jwP3AEKrkF+m0a8BrwCtYAeFklmUzYYckKVEAIC3x+/urgTuAB7BVv4r6RLpvEru6+GnstsIJBQLSCAUA0rC6NP8Atr//CHYZj27dEwlvCngHeAYLBMayLJsOOySJmQIAWVbdxJ+f3X8Qa96jan6R+Mxg7YafAt5CgYAsQgGALKpu4t8A3IMV9m1B+/siKagPBI4DY1jBoE4OCKAAQBbgJ/5ebMWviV8kbTPYyYFnsX4CIygQEBQASJ26iX8I68v/IJr4RcpiFush8DR2/4ACgYpTACD5xL8a2AjcB3zKvy8i5ZMHAs8w10tgSoFA9SgAqDBN/CKVVgMuYFsDR7C+AsoIVIgCgAqal+q/F9vj18QvUk01rJHQU9glRMM6NVANCgAqxjlX3673s1i7Xu3xi8g01j/gSayx0LhaDJebAoCK8J37BoD9wKPYtbyrQo5JRKI0jrUYfga7jXBS2wLlpACg5Hyv/j5gJ/AZrJFPX9BBiUgKrgJfB14GrmZZNhV2OFI0BQAlVVfgtwU7zvdRYG3QQYlIampYD4GnsKODw7pnoDwUAJRMXfe+IayJzyPA5pBjEpHkTWFHBp8GTqL6gFJQAFAifp9/DXAnVuC3E/XrF5HijGJbAs9iRwhVH5AwBQAl4Ff9fdjVvI9iFf66oa/calhDl1n/fm3erzdr5byP6wPHFfM+VlApF7H6gCOoPiBZCgAS54/1bcD2+D+DzvOXQT6Jz/jH7AKPCWw1Nopd8pK/AM8C/62Fr/k/1r3fg2WScr3YCRKwQGGw7vfywGFF3aNnkY975v2epG0W2w7ILxsaUX1AWhQAJMpX9/cD+7BV/35uX8VJ3Gaws9f1E/0MNrnfwDqz/QNzE/0I1rY1ikYt/jm4BpvM+7FAoa/usdr/2r/GgobV/s/nv9cz77HSP1ahLENKJoHXsUDgDGornAwFAImp6+K3BXgAa9+7Zsm/JKHVsIm+/jEFXAEuA/+IHbnKJ/2Rsr+A+uBhLZZZGMCaU20A3g1s8u/nwUD+dhXKHMTsAvA4ti2gbEACFAAkxBf5rcWK/B7F9vz1ghiXfFVf/xjD9kz/DrjkH5djWMXHqK6mZSOwFTvR8jNYYDDAXDBQHyDo5yAOE8Cr2GmBc1mWTQYejyxBAUAC5hX5PYId71Mzn7CWW9X/nX97gQqs6LvB/xyswY61bgb+LZYJ24D9PPTWPbQdFtZZLBvwBvb815HBCCkAiJxf9a/DivwexVZB0n35yn7KP0axlfzfYqv7y9iqXtXQXeZ/RjYCO4B/798OcWtAoLbX3TcOvICdFjivn434KACImHNuNfZi9ih2a19v2BFVSj7ZT/q317G+6H/t315UCj9Ovr5gHbAdeK9/u4lbswSqJ+iek8ATWCOhUWUD4qEAIEL+BWwQO8//GJb6l86awSb7SWwf8xLwV1gq8wxKYybLbx0MYsH0duDnmasnWI0FBsoQdNYo8MfA81jwrGxABBQARMaf68/79z/ErWeupTizzE34k1gK/wzwF8ApbKWiffuScs71YVdh7wJ+CSs27GcuS6DsQPFqwDtYbcBxYExBdVgKACLhVyn9wF7g88AB9CJUtGlsdT+BHbc7zdyEf0MvRtXkM27rgT3AL2MttAexn8e8X4EUZxh4Dvg2cEnZgHAUAETAFzHl3fwexQqYpH015lL641ix3p8DJ4ALeuGR+XwgPoAFAb+CZQjyUwbaKihODcsCPAG8jWUDlHHrMgUAgflUZN7D/zB6gWlXjbkJfxjbw/8Jlnq8rlW+NMM514vVDezFtgo2Y5mBvPOhtOc61jPgBexOATUP6iIFAIHUdUK7C/gcKvRrR/2kfwNL6f8IOJll2VjIgUl5+EzdENZ++31YYJBvFajvQOtmsBsGnwTOKDPXPQoAAvCFfluBh4FPM3fRijQuT++PoUlfuswHA5uxAP5X/fsDWDCg2p3WvAN8DTsuOK4tgc5TANBlPuW/Byv0uwu9WDRrBpv0h7FJ/4fAiSzLRoOOSirL9+u4A/ggtlWwDssM6DRB865ipwReRoW5HacAoEvqziIfAr6AnUmWxuSr/RHsfP6PgKPAFb1ASCzqfsb3Ae/HgoL8wiPV9jRuAvgG1kFQDbc6SAFAF9RV+X8C2+9fF3ZEyZhlbl//HeB7wDtZlk0EHZXIMnyNzxB2cdevYj0H1qAtgkbVsCD/CfQz3zEKADrM7/dvBz6LXd2ryuHlTWOdw64CbwGvYCsBVQhLcvxJgm3Ah4H92L0FA6hwsBH5pUJH0aVahVMA0EF+v38vlvI/iCL/5eRp/vPA97GbxG7oh17KwG8RDGG3eX4AKxxcgxYFyxkB/g+scdAVLQSKowCgA+quLb0bK/bbHnZEUcuP8OVFfd8F3lYlv5SZc24N1u3zQ1jTobVY10EtEhY2A7wIPIWOChZGAUDB6q4mfQD4TSwQkNvVsGr+61hnvpewH+zJoKMS6SJ/gmAXcB92Omg9Vieg9sMLO87cXQI6KtgmBQAF8nt9O4DPYPv9qvy9XT7xX8HO+76EteVVWk8qq643SH2dwBpUJ7CQy1hx4KvoqGBbFAAUxEfy+7H9fl3kc7tZbp34v4MV9umHV8Tz24cbsOPCH8C2D9eiQGC+CeCPgGfRUcGWKQAogHOuH/uB/W10vn++Wayi/xLwJ8Br2A1gmvhFluCcW4vVEX0YBQILqWFZgCeAU6oLaJ4CgDbUNf44DPwWVtUrpn7i/yH2g3pZe3YizakLBD6CLTAGUSBQ7y3gq8Bx1RA1RwFAi/zkvw5r7vN5LG0nmvhFCle3NXAP1nI4byykYkFzBvgKcDTLsvHQg0mFAoAW+C5fG7CLfD6PReRVp4lfpMPqAoF7sSOEW7DXHwUCVhz4Fey1Z1SvPctTANAkf8xvE1bp/5vY2d0qy6v6L6CJX6QrfCCwGQsE3s9cIFD14uMRbDvgW+iEwLIUADTBT/7bsH7+D1Htfbga1qf/MlbV/23sOJ8mfpEu8YHAFuDj2L0Dm7A2w1UOBCaB/x27TEidA5egAKBB/pzuTuAx4H6q/QM2gR3nO45N/Gf1QyYSjl+cbAU+iV0zvpFqZydngOeAJ4Hzen1amAKABvgGP3uBL2I/XFU1hV3Q8zbWwOeUqm5F4lH3WvWgf7uO6mYqa8ALWOfAs+oVcDsFAMuoa/DzO9gPVBXNMHcl73ewXv2qtBWJlD86eA/wMayHQFXrA2pY75GvYQsWBQF1FAAswU/+B7DJf0/g4YRQw4pqzmJX8h7Jsmw47JBEpBG+PqB+W2Az1d0WOAp8GTipIGCOAoBFaPJnHLiIXcv7MqrsF0mS3xbYg11Qtp/qbgscxU4IvKOugUYBwAIqPvlPY/v8bwLPowI/kVKo6yh4H9ZRcA3V2xY4jmUCjisIUABwmwpP/nm6/xRW2X8sy7KxsEMSkSLV9Q+4n7lGQlXbFngH+APgraoHAQoA6lR48p/E0v3fA15E6X6RUvPHmvcCDzO3LVClbICCABQA3FTRyb8GDGNpseex6v7K/jCIVI1zbgOWDfg41csGVD4IUABAZSf/Kaxv/0vAC1mWXQk8HhEJwGcD9mPZgH3YtcNVyQZUOgiofABQwcm/hl3acwJ4Fnviq5mPSMU55zZit5t+DKsT6A07oq55B/hfqWBhYKUDAH885iDVmfynsRa+rwHfBC5qr19EcnULooexGoGqNBA6AXwJOFGlPgGVDQD85H8A+F2qMfmPYhX+zwNvqJOfiCzGObcZayd8GLtgaFXYEXVF5ZoFVTIAqKuA/T1sz6vMZrFz/a9jk/85rfpFZDnOuT6sg+AD2CJpMOyIuqJSQUDlAgB/a9ZObOV/d+DhdNoUcA67FvO1LMtGAo9HRBLi+wZsw7IB92C3DPYEHVTnHcUKA0+VvQlapQIA51wP9mT+bazYpcx7W6PYrX3PYIV+pY9mRaQznHMD2HbAZ7AugmUvEHwZCwJKfZVwZQIAP/lvBL4A/Abl7YU9C1zHCv2+jj2BlfIXkbb47OkB4LPYscGBoAPqrBrwDWw74HKWZbNhh9MZZU/lADfTWOuAR4Bfo7yT/zRwAdvrfzHLshuBxyMiJeFXwm8454axRcZhYD3lzKSuAD4NjAGPO+eul3EhVYkMgHNuDfDr2HG//sDD6ZRx7DzrM1iVf6XOs4pI9zjn1gGfwmoDNlPeUwKT2FbAH5axhqr0AYBzrh97ov4e1uGqbGrADaxw5RngdBkjVRGJiz8lcAirC9gF9IUdUceMAv8R+FbZjk+XOgDwTS0OYw0eNgYeTifMApexpj7fUjtfEekmX1u1BwsC7sKuGC6jK9gi8vUydU4tbQ1AXZe/36ack/80cB5b9b+oq3tFpNt8cdzbzrkRLBP5UWCI8s0tG7G5ZMI592ZZTlWVMgPgG/3swVb+ewMPpxMmgZPAk8DRsjwZRSRdzrlB7GbBh4HtlLMu4Di2HXCyDMcDSxcA1J31/xLWuKJsxoBjwNPY9b2lPJ4iIunxi6+7gM9hi7AyXi/8Mja/XEz99bdUaZq6436foXxd/mrAMHa+/+ksy84GHo+IyC2yLJt2zr0OTACPYX0Dynby6jB2DPIrzrkbKRddlyoAwJ5o9wMPUa6zqbNYEco3gT9WsZ+IxCrLsppz7jjWinwSOylQpnsEerBj5f8I/BF2BDtJpQkA6or+HqNcx1FmsOY+zwAvZFk2Gng8IiJL8qvik865SSwb8FHKdQy7D/g8cN05dyTVviulWCXXXfDzBawCtSxmgLPAV4HnNPmLSEqyLDuPvX59A7iGbWWWxRDwW8AuPwclJ/kAwBf9bcJW/nsCD6dIU8Ap7IfnxSzLJgKPR0SkaX7L8nHs1NJlbEuzLHZhmYDNfi5KSvIBALa39DBWmFEWk8AJ7CKKl3XMT0RS5u8l+UMsELiAZTfL4h6s8HytL0RPRlKDnc+3ojyMFWQkmYJZwCR21vQr2Bn/MkXLIlJRfgvzOSyreQZrZlYGeVHgR0ns2GOyAYA/b7of2/cvS4XpGNbT/yvAm5r8RaRM/FbmC9hr3EnKEwTkRYF7/dyUhCQDAL/Xsh2b/LcEHk5RRoHXgS9nWXY85bOlIiKL8Vuar2GZgDIFARuBL5JQPUByAUBds59HsQxAGYwArwJfy7LsdOjBiIh0ks9uHqV8QcAB4BESyUonFwBgeyz3Ap8gzfHPN4K1lvyauvuJSFWUNAhYAfwacLe/jTZqSU2g/qzlbqzPdG/g4RQhn/yfyLLsQujBiIh0U0mDgH5se3pn7P0BkgkAfOp/CJv8N4cdTSE0+YtI5ZU0CNiGFQVuiPloYLQDW0A/dsziUOiBFECTv4iINy8IOEU5goC7gQeJ+DKkJAIAf6xiL1b4F3VKpQGa/EVE5qkLAh7HWqCn3ixoJfCbwP5YjwZGHwD49Ene6ndD4OG0aww7/qLJX0RkHh8EHAGeAM6RfhCwFtsK2BTjVkB0A1rAAJZGORB6IG2aAN4AntTkLyKyMN8n4GXga5QjCNhHpFsBUQcA/orfA9ixiiQaKyxiCmvv+4SO+omILG1eEHCBtC8QWgE8RIRbAdEGAL6T0mbsOMWawMNpxzRW2fqEfysiIsuoCwKeAq6Q9lXCa7G5bGNMWwHRDGQBg9gNS7tDD6QNs1gK60ngLbX3FRFpnA8CXgS+DlwPPJx27cVuro1mKyDKAMCn/u8EPk2kY2xADbiIRa9HdLGPiEjzsiwbw24RfBE7RZWq6LYCoptcfXpkI1b1H02k1KQalrJ6GnjZR7EiItKCLMtuYK+nR4DxwMNpR1RbAcEHsIA+4JPAztADacMN4FngBX/9pYiItCHLskv47VRgMvBw2rEXOxXQF3ogUQUAvm/yTixNEtXYmjCKnfV/LsuylNNVIiKxOYMFASl3C8wvDNod+q6A2I7WrcG6/a0PPZAWTQJvAk9lWXYt9GBERMoky7Kac+44tnruA3YQ3zzWiLXYvTbnsIxxENGssn3h312k2+t/GotKn8qy7HzowYiIlFFdy+AngUukezzwIHCXn/uCiCIAqDvzn+o1v/UV/ycCj0VEpNTqegQ8Q7rHA3uxYvdgBYFRBADAauABLJ2TomvYOdWjOu4nItJ5vsD6W9jxwNHAw2nVDmzuWx3iiwcPAHwRxC7gU0QwnhaMYE/AF7IsS7kyVUQkKVmWDWNZgFRPBqzA+t3c4TPhXf/ioa3B0iDrQg+kBfkFP8+o4l9EpPuyLLuI9Qg4R5p3BqzH5sDBbn/hoAGAL344hBVDpKa+6O9S6MGIiFTY29g2bKqnrw4Bd3a7Q2CwACDxwr8acBlLPemCHxGRgLIsmwFe9Y8U6wF6sblwfTcLAkNmAHqx4oftAcfQqhHsiXZUF/yIiITn7wx4Brt6PcV6gJ3A3UDXsgBBAgC/+t8CfCLUGNowiRWcPK82vyIi8fD1AE8B50mvHqAHuwF3qFtZgFCT72rsWsTUOv7l1/s+k2XZ5dCDERGR27yN3cWSYj3ANuDjdGlbvOsBgF/9bwc+2u2vXYBr2BNLzX5ERCJUVw/wOmnWAzwEbO7GscAQGYA+LM2xJsDXbsco9oR61T/BREQkQv5Y9tPYYm0q8HCaNQQ8QhdqAboaANQ1/bm7m1+3ANNYtf/XsyxLMaIUEamULMsuYPUAF0ivHuB+utAcqNsZgHz1P9Dlr9uOGnAFS/3rkh8RkXQcB74NDAceR7Pym3E72iK4awGAX/3vJb2mP2NY6v+YjvyJiKSj7tKgE6R3NPAQsLOTWYBuZgD6sYimv4tfs10zwGl05E9EJElZluXF25dJ6+rgfuCzdDAL0JUAwK/+DwD7uvH1CnQVe+JcDDwOERFp3dukeSrgTjqYBehWBmAQu+wgpZa/Y8BR4A2l/kVE0pVl2RTwTez+lunAw2lGP1Y315G5s+MBgL/c4ABW/Z+KGeAs8GyWZeOhByMiIu3xl7al2CDoTmBbJ7IA3cgA9GF7/yu78LWKch14Huv6JyIi5XAMy+yOhR5IEwawLEDhfQE6GgD4vf89pLX6nwDeBI4o9S8iUh6+mPvr2OIupYZu9wDbi84CdDoD0It1NEpl9V8DLmGp/9SKRUREZHnnsQzvjdADacIg8CAFz6UdCwDqev7v79TX6IBR4HvY0T8RESkZn9l9Hcv0pnS8+zCwpcibAjuZAVgFPIDVAKRgBjgDvKBe/yIi5eUzvM9gR7xTaRO8FrspsLAsQEcCAB+hDJFWz/8bwEtY218RESm3M8B3Sas3wP3AuqKyAJ3KAKzCihbWdejzF20SaxWpwj8RkQrwmd4XSeuyoCHsWGAhxYCFBwA+MhnE0v8pqGEd/573V0iKiEg1XAVeIa3Lgh6moPbAncgA9GAX/mzuwOfuhHHgDeCd0AMREZHu8Rnf17DGb6l0CLwD2F3EkcBOBAB92NG/jt5jXJBZrAjk+SzLUrspSkRE2pRl2Q3gO6STBVhJQcfrCw0AfESyB9hZ5OftoDHgB9gekIiIVNMbwElgKvRAGnQA2NpuMWDRGYBVWGRSeMvCDpjFmv68nGVZKgUgIiJSMH8s8JtYG/gUDFDAkcDCAgAfiWwincY/edOfy6EHIiIiwb2NnQZLpTnQvVjBfcuKzACsBA5h1xfGbgZrB/myjv2JiEjdPQHXsNNhsRsCDrRTDFhkANALfKzAz9dJo8D3Se9aSBER6ZzTpNMieAV23L7lbYBCAgAfgewEthbx+TpsBiv6e12rfxERyWVZNo1dFHSFNLIAu4FNrRYDFpUBWAncRxq3/mn1LyIiizmHZQHGQw+kAX1Y192WtgHaDgDqOv8davdzdcEMdu7/Na3+RURkPn8q7NvYiYAU5omPY1vwTSsiA9CDnUlMoe//GLb6T+Woh4iIdN8F7ERACg3itgA7W9kGKCIAWIlFIJ28WrgIs9iRP+39i4jIovxFQS8BKdwP00OLPQHamrTrzv7vaefzdMk4cBy7/EFERGQpp/0jhe6Ad9NCT4B2V+09/gv3tfl5Oq2Gpf1f0epfRESW4++HeQUrHI/dWuBgsz0B2g0AUjn7P4nd9qee/yIi0qi3sHljJvRAGnAfTZ4GaDkA8JHGLqwAIXbD2Oo/hX9EERGJQJZleeH4WOixNGAvlgloWDsZgB7gg8R/9n8KOAOcCj0QERFJzutYY6DYL43rp8nWwO0EACuBu9r4+90yAnzP7+eIiIg04wbpNAa6jybm9ZYCAF/9vxXY2Mrf76L86N+boQciIiLp8YXj38ECgdiLyPfQxGmAVjMAPcBBWmw/2EXjwI/9Xc8iIiKtuIQVBMZ+SVA/sK/RpkDtBADvb/HvdtMIcDT0IEREJF2+PfB3SaMY8CM0uDhvOgDwkcVaYEezf7fLprBLHS6GHoiIiCTvDJYJiP002QEa3AZoJQOwAtgHrG7h73bTGPAn/npHERGRlvlC8j8l/mLAQWBvI9sArQQA+fG/mNWYq9wUEREpwjHS2Ab4AA3M760EAL1YBiBmE1jnvxuhByIiIqVxCdtajj2zvJ8GevQ0FQD4lMIuWrh0oMvGgB+o77+IiBTFbyn/iPizAOuBLcttAzSbAeihwdRCQLNY1yZ1/hMRkaIdw06YxbzA7KGBTH2zE/lK7Px/zMaBn2RZFvt5TRERSc8NbIEZ+zXB72OZOb7hAMCnEjb5R8zGUfGfiIh0gO8J8EPi3wbYA/Qt9QeayQCs8J8w5st/ZoGrWJGGiIhIJ5zAbpmNeRtgANi5VB1AswHAL7Y9pM6aAE7q4h8REemgMeA0EPtcs+Q2QCsZgJiNAz8OPQgRESkvf8Lsz4j/boADS/1mQwGATyEMARsKGFCnzALXsahMRESkk94h/q6AW7HW/QtqNAOwAthJ3Lf/TWLp/9gjMhERSd8N4AJxNwXqBXYsVgfQzBbALxQzno5R+l9ERLrCbwP8hPi3Ad672G80GgD0AHuLGUtH1LDGDGr+IyIi3XKc+AOAPSwy1zcaAAwAWwobTvGmgPNZlsV+LlNERMrjMtZ5NuYrgu9gkeP7ywYAfu9gB7Cq4EEVaRL4z6EHISIi1eHvBvhz4j4O2M8iC/hGMgCpnP9X+l9ERLrtBHEHACuAXQsVAjYaAMS8/z+L7f9fCj0QERGpnDNYY6CYuwIuuIhvJADoxbYAYjUFnPGpGBERka7Jsmyc+I8D7maB+X7JAMCnDLawzIUCgU0CfxF6ECIiUll/Rdy3Aw4Bg/N/sZEMwPYG/1wok6j7n4iIhHOGuAOAlVhXwFssN7GvAH6mI8Mpxgx2+9+VwOMQEZHqOkvchYAAW+cXAjaysr8taojIFHA2y7KYz2CKiEi5jWM9AWKuA3jP/F9oJAMQewDwN6EHISIi1eXbAv8lcQcATW8B9APrOjOWQkxh1ZciIiIhnSXuOoAtzLvQb9EAwO8VbJj/FyJSw/ZcdP5fRERCO03cdQD92Jx+03IZgG2dG0vbZoCrWZbF/A0XEZFqGAGuYc3pYpQf67/lF5b6wz/b0eG0Zwo4H3oQIiIiWZbNYhnpmOsAblnUL5cB2EHegjYAACAASURBVNzBgbRrGvjb0IMQERHx/pa4A4B/V38UcLkMwPbOj6dl06gAUERE4nGFuAOATfUfLBUArALWd3YsLathNwBeDj0QERER7zJWnxarjfUfLBUAbMTaB8ZIBYAiIhKbq9jiNNabAQew0wDAIgFA3SVAscpbAIuIiETBd6WN/STAUP0Hixla4vdCmwH+IfQgRERE5om9JfBQ/s5SAcC/6fw4WjaNRVkiIiIx+XvirgO4WQi4WACwAljbnbG0JE+ziIiIxCT2kwDvzt9ZKgOwpgsDaZUCABERiVHsJwGWzQBA/EcAx0IPREREZJ7rlCAAiPUWwBngum+7KCIiEg1/EmCEeE8C3FzcLxYA9AG93RlL05T+FxGRmA0TbwCw0jnXB4sHALHv/+sIoIiIxCrmDAD4ZkCLBQA6ASAiItKa/0bcAcB6WCAA8F0AN3R9OI2bAW6EHoSIiMgiRok7AEg2A5CfAhAREYlR7FsAg7B4APCuLg6kWbMoABARkXjFXAQI/pRfihmAWSy9IiIiEqMbxN0L4F9BegFADZjOsizmNosiIlJtsW8BrIHFA4CeLg6kGTVgPPQgREREljCNzVexWjIAiNUsagEsIiIRy7KsRtwnAVbDwgHACuLtAlgDJkMPQkREZBkx1wCsuPmfBQx0cSDNmMGqK0VERGI2RdzbAIsGALFuDdSAfwk9CBERkWWME+8WwFqId6JfjJoAiYhICmJe/a+C9LYAasT9TRUREYG4iwCBxQOA1V0dhYiISLnEXATYA+nVAIiIiKTg/yXejHWSNQAiIiIpmCDeAGDRDMBglwfSDPUBEBGRFERfs7ZQABBrEyBQACAiIlKIxToBxizqiEpERCQFsU/2IiIi0gELBQC6aldERKQ9PUS+yF5ocCNdH4WIiEi5/A/4avtYLRQAxL7HHnVEJSIiQgJzVfQDnKcHWBN6ECIiIqlLLQCANMcsIiISlcUm01gvMOgB+kMPQkREJGE3YPEA4EYXB9KMFcB/F3oQIiIiy1hFvBnrGVh8cLEWAq4A+kIPQkREZBkDxBsAjEC8g1tMD7qqWERE4jdIvMcAp2DxAGCsiwNpVqzfUBERkVwv8S6yx2DxPgCxXrijY4AiIpKCNcS7YJ2ExaOTa10cSLNijahERERwzq0m3skfYBwWn0ynujiQZqxEGQAREYlbH3EHABOweAAw2sWBNGuVc05BgIiIxGotcQcA/wKLBwD/3MWBNGsl9s0VERGJUcwFgOAX+YsNcLyLA2nWSmBd6EGIiIgsIuYjgLBMAHC9iwNpVg8KAEREJF7riTsAGIYFAoAsy2rAdNeH0zhtAYiISMzejc1VsVo4APBivQsALKr6N6EHISIisogNxB0AXIfFA4DhLg6kWaoBEBGRmMUcANzwmf4l+wCMdG88TVEAICIiUXLO9RP3RUA3F/hLDfBq58fRkhVAn/8mi4iIxCTm1T8kHgCAOgKKiEickg8AasR9H8AqYFvoQYiIiMwzRNwBwM0i/6UyAP/QhYG0ahWwMfQgRERE5on9COA/5u+kugXQC/xc6EGIiIjME/sWwPn8nQUDAH9EIPYtgM2hByEiIpJzzvVgc1PMAcDl/J1UMwArgAHn3IbQAxEREfE2YVcBx3oEcJS6236XGuQ0cTcEWoV9s0VERGKwDZubYnW5/oOlAoAacKmzY2lLL7Al9CBERES8zcQdAJyv/2C5NMX5ZX4/pFXAT4cehIiIiPcebHEaq/+atwGG5TMAf9f58bSsF/UCEBGRCCRSAHhLVn+5DMCZDg6kXT3AWudcX+iBiIhI5cVeAAiN1gD4NEHMNQBgWYDtoQchIiKVF3sB4Axwsf4XlotUxon7OOBq4I7QgxARkcqLvQDwAjBb/wvLBQA14i4EXA28N/QgRESk8n6euAsAT8//hUb2KmLeBugFtjnnVoceiIiIVJO/nn4rcWcA/nr+LzSSAfirzoylMH3AjtCDEBGRytqNZaRjdqr+CCA0lgG4uPwfCUp1ACIiEtIu4k7/z2A1ALdYMgDw0cJFYKJDgyqC6gBERCQI59wKbA6KOQNwHmvvf4tGMgAzxN0PQHUAIiISynribwB0BtvSv0UjAUANOFX4cIqlOgAREQlhJ3Gn/2GBAkBoPAD4P4sdS+FWY/8IIiIi3fRL2CI0ZrcVAEIDAYD/SydZIH0QkT7gF/1ejIiISMf5OecO4s4ATLJAASA03rN4jHk9hCOzCmvDuC70QEREpDI2YzUAPaEHsoRTLFAACI0HACnUAfQDB0IPQkREKmMvcVf/A/wZi2TwmwkA/qKw4XRGH/DL2gYQEZFO83PNrxD//v/bi/1GMwHAO8WMpWPyQsCB0AMREZHSW0f8JwAmgdMLFQBCgwFAIg2BwCb/vaEHISIipXcQ23qO2UkW2f+HxjMAYA2BFk0lRKIf+NXQgxARkfLy6f/3EX/6/ycscYKvmQCgBvxp28PprNXAbnUFFBGRDlpP/Ol/WGbR3mwA8BZx9wNYAQwCe0IPRERESusg8a/+J4Azi+3/QxMBgP8kl4Gr7Y+ro/qxykwREZFC+fT/r5LG/v/UUn+g2SNzs8CbLQ+nO/qAPc652FMzIiKSnvXE3/0P4EfL/YFmA4Aa8OPWxtI1PcAGYF/ogYiISOmkUP0/CxzNsmx2qT/UVADgP9nb2ImAmA0CH1JTIBERKYpzbiXwIeLvN3ORBtr3tzJBjmF7CzHrwwoBdTeAiIgUZQd278yq0ANZxhs0ULDfSgCQwnFAgDXAXaEHISIi6fMZ5fuwDHPMasCf0KEAYBY47t/GbAB4v0/ZiIiItGOQNI7/jQGnljr+l2s6APCf9DTxHwfMrwjeEXogIiKSvEPAWlpbOHfTMZZo/1uv1f+RWeC1Fv9uNw2ibQAREWmDzyR/mPiL/wB+SIMN+9oJAL5PGtsA73POxZ6yERGReN0BbCX+4r9J4K3ljv/lWgoA/DbAGeBKK3+/i1ZgTRsOhB6IiIikxxf/fQQrLI/dcWC00T/czl7GLPB6G3+/W9ZgPQFUDCgiIs1agy0iY88k14BXaOK+nnYCgBnS2AZYjfUE2Bl6ICIikpx7sJ4ysRf/jQPHGk3/Qxv/QwltA4BVbn7cOdcTeiAiIpIGXz/2EeI/+w9W/d9w+h/aj2hSOQ3Qj90NsDn0QEREJBl3YcV/sW8h14Dv0UT6H9oPAGaAHxD/NgBYMeBHdT+AiIgsx98o+zHSKP4bAd5sJv0PbQYAddsAF9r5PF0yAHwQCwRERESWsg87/hf70T+AI8BEs3+piNXwDPDNAj5Pp63Argm+V1kAERFZjD819nHSWP3XsIL8ptL/UEwAkNcBNB19BDBIGlc5iohIODuA3dgpsthdB040m/6HAgIAvw1wHatAjF0PsAk71iEiInILf1rsAez0WAq+hXUAbFpRqfAZ4NukUQy4Fviwc05ZABERmW8rsB87PRa7SeA7tDj3FhIA+NTDCeBaEZ+vw1Zi6R3VAoiIyE1+7/9B0ikWfwu41MjVvwspcgKcAF4s8PN10jrSKfAQEZHu2AbcSRp1YrPA81gGviVFBgAzwEvAVIGfs1N6sDTPp5QFEBERf+7/M8BQ4KE06ipN3Py3kMImP5+CuAycLOpzdtga7H7nVFI9IiLSOXuBg8R/6U/u67RY/JcrevU7jRUDtrQf0WU9wBbgId0RICJSXc651cDDpLMgnABeps3C+0IDgCzLZrArgq8W+Xk7KO8LsCX0QEREJJhD2Ln/3tADadAbwPVWi/9yndj/ngCe6cDn7YQVwEbgAV/9KSIiFeKcGyStyv9p2iz+y3UiAJjBTgM0dS1hQIPYjU87Qg9ERES6xxeB34u9/qeyCDxLi53/5is8APApiWHSORIIlgX4jN8HEhGRaliPHQlPpevfLPA0BZ2269QRuGngWdqsUOyiPuAAcJeOBYqIlJ/f9v0UdiQ8lULwi8Drvt6ubR2Z7Hxq4iLwZic+f4dsAB4hnX0gERFp3XbgY6TTEK5GAUf/6nVytTuNDXa6g1+jSCuxu58/5ZxL4f5nERFpgXOuH/gcsJnOzoNFuo4d/Stk9Q8d/B/3KYoTWMFCKtZi+0F3hB6IiIgUz2/zHsIu/Emp7usbwEi7R//qdTrymcKOBBYWsXTBJuCzPkIUEZFy2UBaTX8ARrBW+4XOpR0NALIsmwaOABc6+XUKthrYBxxWQaCISHn47d2HSOvYH8CrwJUiV//Qnb2PceBJ0soCbMAaQ2wMPRARESnMTuA+0in8AxjDMumF19N1PABINAvQg1WIqjeAiEgJ+G3dz5Lewu5l4GLRq3/oXvXjGOllAQaBe4D92goQEUmXv/DtMLa9m9KibowCG//M15WJLdEsAFhBYH5URERE0rSVNPu8dGz1D909/5hiFmAldkPUozoVICKSHn/Zz2NY4V8qHf/AKv+fpoO9dLoWANRlAc5362sWZAC4G7hHNwaKiKTDv2Z/FLvwrS/wcJr1x9jqv+1LfxbT7b3tMeAp0soCAAxhxSO6MVBEJB07STP1fwPrpNuRvf9cVwOAuizA6W5+3QLkpwI+55xbF3owIiKyNOfceiz1v5V02v3mvgVc7dTefy7EN2UM+Brp3BSY6wMOAp9wzvWGHoyIiCzMv0Z/mvTa/YL1/H+eDq/+IUAA4LMAbwLHuv21C7AeeADYraOBIiLx8a/Ne4FPAqllbGexnv+Fd/1bSKhJbAJ4HKtyTM1WLK2UWjMJEZEq2Ii9Rqd4fPsC8CxdWP1DoADAVzWewfY5Oh7lFGwV1kziUedcSu0kRURKzTk3gBVs78Zeq1MyhS2Mr3dj9Q9hCyMmsSrHKwHH0KpB7GjJ/WoVLCISnt/3vxd7bU5xcXYCeN1vk3dFsADARzhXsEYHqR0LhLmjgQd8m0kREQnAvwbvBR7FXptTMwZ8Bbs8r2tCF7JNYa0OzwYeR6u2AJ9H/QFERELaCnwB2Eb4ea1ZNWwePJVlWVcXw0G/UT4LcAPb90jtWCDMtQr+gnNuKPBYREQqx5/3/zyWAUht3x/gKtYgr+tzYPBIad6xwNQKAsHOmB4EPut7TouISBf4O1oeAg6RXqtfsO3vp4BLnWz5u5jgAYA3ijUHuhZ6IC1aC9wP3KsmQSIineecW4VN/A+S3nn/3FngRbp07G++KAIAH/mcBZ6hgzcfddhGrChwny4NEhHpHN/sZxd23n9T4OG0agz4KjDcrWN/80URAHiTWF+Ak6EH0qIVWAHKF4Ad6hQoItIxedFfalf85mrAa8Cxbh77my+aSaquIPCrwHDg4bRqFVaI8kXsCSoiIgVyzm3Eiv4OAKluuV4EnsC64gYTTQAANwsCTwAvYD2RU7QauBN4zD9RRUSkAM65tdhW62GgP/BwWjWB1bxdDFH4Vy+qAMAbx2oBzoUeSBsGsCfoo7o+WESkfb7N76eAT5Bmpz+w1P8bwGtZlgUp/KsXXQBQ1yHwcbrcFalga7En6qd1PFBEpHW+5fo92Op/KOxo2nIFW/2PhR4IRBgAAPjI6ChwhDR7A+Q2AJ/BjgemeEZVRCQof9zvAOne8JebAp4EzoVO/eeiDAC8MaxI4kLogbRpM/bEvUs9AkREGudPU+3GCqu3E/ectZzjwItZlkXT9Tbab6aPkM4TUbqkDduwJ/B+9QgQEWnYDuy1czfWej1VV7HLfkYCj+MW0QYAAD5Seg27KCGKlEmLVgB34J/ICgJERJbmnNuKXziRZo//3ASW+j/d7ct+lhN1AOCNYQWBp0IPpE0rgT3A7wC7dIWwiMjC/OT/BdLt8Z/Lq/7/OMuyoGf+FxJ9AFB3KuCrWKOglPVi0exvoW6BIiK3qZv8P4odqU7ZOWzuiir1n0tiAvKnAt4CniPduwJyvVhFq4IAEZE6JZv8h7HJP5qq//lSmnzyBkHHA4+jCH1Yauu3URAgIoJzbgvlmfynsbttjsTQ8GcxyUw8fivgGhZRXQ48nCLkQcAXsVMCIiKV5Numfw64l/Qnf4C3gaeIvJldMgEAgK+gPIVVVEb9jW1QHgR83qe+REQqxU/+j2Ir/zJ0Tb2MLVSvhbrmt1FJBQAAWZaNY5cFvQZEdaSiRfm9AQoCRKRS6ib/TwNluDdlHFugvhPymt9GJRcAeCNYg6C3SbtVcG4Qi34f8/tgIiKl5hc8n6c8k38Na1//YoxH/haSZADgKyovYmmWi4GHU5Q8CHhU1wiLSFk551Y457Zj9U9lmfwBTmM9a4ZDD6RRSQYAAD69cgK7LyDKM5YtWAPcD3xWQYCIlI0/8bQTOwZ9L+XY8wdr9ftV4HysR/4WkmwAAODTLK9ixy2iPWrRpHXAQygIEJES8S3Qd2OT/2HKUe0PMIrt+78R85G/hSQdAHgj2HGLY5SjHgAUBIhIifgrffcCvwvcTdrtfetNAS8Cz/kC9aQkHwDMaxV8NvBwiqQgQESS569BP4Ddg3IA64ZaBjVs4fk4iW5DJx8AwM3+AGewIOBq2NEUKg8CHnHOrQ89GBGRZjjn+oG7sMl/P+WZ/MF60nwFuBL7ef/FlCIAgJtXBx/FtgNGAw+nSOuwStmHnHNlqZYVkZJzzq3FTjb9LnYTapmuQc+b/ZyJ7YrfZpTqStosy8acc88B7wJ+nfLsMw0BnwGmnXPPZVlWpgBHRErGObcJO9H0MLA58HCKNoIV/R1LrehvvtJkAOoMY0cDj1COToG5jVgQcNg5V5bARkRKxJ/x34E1+HmM8k3+U9ips2+lWPQ3X+kCAL8XcxVLz7xFeU4GAGzF2mYe8EdqRESi4Cv992G3nJapwU9uFltYPkmiRX/zlWoLIJdl2axz7jxWoDEA7Ao8pCJtBz6LZTpOBh6LiEhe7HcAW6DspVzFfmALyRP4QvNUi/7mK10GIOc7BZ6kXO2CwQpp9gIPO+eGAo9FRCrOF/vdjxX7lemYX72z2ILyXMpFf/OVNgCAmycD3sBSNjcCD6dIfdjRmrt92k1EpKv8fv9m4Dew7n47KWdW+QK2kDyeetHffKUOAODm9cEvAt+gXMcDNwAfwrYERES6xi889mAT/+coX7Ff7grW6OeIX1CWShmjtYWMAE8Dq4FfoxzHA1cAdwAfdM5dTOX6SRFJm3NuDZbqfwQLAlaHHVHH3MD6yrxYhor/hVQiAMiyrOacu4YdD+wFPkE5nrSD2OUam7GrKEVEOsLf5LcFu8jnk9ippLJmkUeBP8J6/I+FHkynVCIAgJtBQH5nQC92FWUZ9s83AztQACAiHeL7+e8CHgQOAWvDjqijJrCz/k9TkuN+i6lMAAA3jwdexqo5V2KRbOrfg3XAzznnVpdxj0pEwvItyA9ik/8eylnln5sGXsYKx6+X5bjfYlKf/JqWZdmM7xHwZeyJfCdpfx9WAuuBNYACABEphHOuB0v5fww75reZ8qb8wRr9vA58Dbhc9skf0p74WuaDgHNYELASK2hJ+YndjwUAV0IPRETS55wbwFb7n8RW/2vCjqjjZrGrfb8CXMyybDbweLqikgEAWKMg51x+nWPeXCfVIKAfKwgUEWmZX/VvBu7GVv7bKdctfguZxfrFfJmSNfpZTmUDAIAsy6acc3l7x16skUWKeinHqQYRCaRu1f8xbGu0zIV+ufrJ/5TvIFsZlQ4AwLoFOufewibQL2Jn60VEKmGBVf82ynFCajmVnvxBAQAAWZZNOOeO+A8VBIhIJdSt+j+O7fVXYdUPmvwBBQA3ZVk2riBARKqgbtV/D3Af1Vn1gyb/mxQA1KkLAlZgd1pvCzykRs0ClSlcEZHW+XP9+4APA/upzqofNPnfQgHAPHVBwCosE7Al8JAaMe0fIiILcs71Y4XOH8SK/DZTrTlAk/88VfrHb1iWZWPOuVex4y+PEX8QoAyAiCzIObcSew27C7tBdAfVOzWkyX8BCgAWkWXZqHPuBf9h7EHADMoAiEgdf3nPBizN/0Es7V/2hj4L0eS/CAUAS5gXBHwB2BRyPEuYQm2ARcTz6f7d2D7/QWCIar7eTwNHsfa+mvznqeIToik+CHgLeD/xBgCT2A1WIlJhzrlVWPHyIeADWCe/Ml/es5QJrLf/E8CZKnX4a5QCgMasBPpCD2IJE9j91SJSQf5Y3xB2r8mHsLP9AyHHFNgY8ALwFNbbX5P/AhQANKYfq5iN0Qz2ZNcWgEjF+Il/A3aXyfv82yHSvdekCDeAPwaeAa5U5WKfVigAWIZPqa0j3uKZSeD/qcLVlSJifIHfeqyw733Yin8jek2/AnwdeA64rtfFpVX9ydKIPuBniTeiHkfpf5FK8BP/OmzCfx8WAGxCr+UA57FV/wtZlg2HHkwK9KRZXj+wNfQglqAAQKQCnHNrsRT/f8ACgM2U/6reRtSAM8CTwGtZlo0FHk8yFAAsbxCrpI3VBFYDICIl5Jxbgx3pex92pn8LmvhzNeBtbPI/lmXZeODxJEUBwBL8/v8QVmQTK2UAREpo3sS/F5v4q3qkbyHTwJvYMb8TWZapELpJCgCW1g+8h7ijbWUARErCV/Xne/y/jAUAmvhvN4ad8X8aO+OvBj8tUACwtEGsb3asalgGQGkvkYT5bONGrKjvl7DryDcR9+IjlGvYGf9ngUs65tc6BQCL8NW2g8R9JXB+BFBNLkQS5Jzrw15j9gK/iC04NhDvqaOQasA5bOJ/GbihY37tUQCwuNVY9X/Md2WPYNGwiCTEOTcI7MLS/LuwICDWXiMxmAXews74H1OlfzEUACxuHXbcJuZI/DpwOfQgRGR5fn9/Pba//0vATmx/P+Y24zGYAI5g+/2nsiybCjye0lAAsAD/g7oRS8vF7AYKAESi5m/m24ZN+O/F0vza32/MdWy//3nU079wCgAWNoil5gZDD2QJk8BVdARQJDrOuZXYImIX8PNYL5EtWJo/5qxiTOr3+9XWtwMUACxsPXBn6EEsYxj4e1XAisShrnD4Dmzi//dYHdEGYFXAoaVmFjiBtfV9I8syLXI6RAHAPL4q9w7ibv8L2v8XiYJzrhd7vdiNTfrbsBR/la/jbdUott//PLbfr+Y+HaQA4HYbgI8Rf8Su/X+RQPy5/Q3YYuG92KS/BSse1utqa84D38FS/peV3ew8PVHrOOcGsNT/7tBjWYb2/0W6zK/0N2OT/XuwVf5mrF24OvW1bho74vdN4M0sy0YCj6cyFAB4fv9uM/AA1gMgZtr/F+kw/5rQh63stwM/x9yEvwFN+kW4AbwKfBs4qyN+3aUAYM4a4EPEffNfTvv/Ih3gJ/0B7HVgK7bS3+gfa4l/azAV+RW+38R6+l/Tgqb7FABw88jOduATpPE9UQAgUpC6/fwt2KT/s1h6fwM26afwmpCSCeAYVuh3Ql39wtET26wHHsRSe7EbBf4W7f+LtMQH/ENYOn8T8NPYa0D+GERn9TvlCvAiVux3Ubf4hVX5AMD35P4ocIg0fugvA6eVLhNpzCITfr66X4dt/1X+tbDDpoF3sJT/MXSRTxQq/aT3qb89wGdI48zuDHAB2zsTkQX4av31zE34P+M/1oQfxlVsn/8VrNBvIuxwJFfZH4K6qv/HsBeJFNwA/kKdsURu/gz3Yqv5IWyS/ynm0vjrsElfE34YU1hHv+8Ab2KrfmUuI1LlH4q1wCPAPtJI/QNcBE6GHkSV+azRGmyS6WfuZ2gG688whhU5TQITSnMWw0/2/dj3PZ/wfwqb5Af9Y8A/+kjnZ7qsLgGvAd8DzqmjX5wqGQD427nuxqr+UznWM4FdjnEp9ECqxjm3Hmv+sgPbP84nmvp+ETVsn3PSv50Gxp1zo8A/Yb0b8scIMKXg4Hb+Js41dY9BLFj/Kf92gFsn/Nh7dlTNBHAcW/UfB4b1PI9X5QIAvz+4D0v9rw08nGZcxdL/apTRJc65zcBd2N3tG7GV5wCN/9zMYgHBOPbCmL+dAMacc/+3/7Ux5rIHU3V/Z5oSZhH8an4Nc+n5Qf/2Xf5tP7aKr38MkE6wXkU1LEP5Mrbqv6jXqvhVKgDw1cB3AL+NrehSkf9wnQo9kCpwzq0B7gXej93h3upZ8B5sMutf4PfyLYNJbNKf9m9n5r/vnJvw7/8zc0HF9Lw/N1H3eeuLrPI/mxsrKqCoa5qTy/9/we6678NW6L3Mrdz/e//+/El+dd1bpe/TMo5V9r+E7fmPlC1oLavKBAA+tbgV+B2s139KLzIjwF9iRYDSIf45sg/4JHAAW/F36mdkJXNbCcuZxib+Kea2Gmb9Y9r/Wr7aqn8fLCCYqft4yjlX5ItzfQo+L8oD+771Yv+fK/2fy4OBXtL6+ZOFzWLbki9hN/hd1rn+tFQiAPArlSHgi8BB0vv/vgycVAVt5zjn1mI1Ifdhe/0x7S3nqe+YxiTVdgWb9H+I9SXRyaQEpTYRtmodtud/mPT2ESeB01ikLR3gnNuF9YK4C13nKrKUUezmvu9ijX10tC9hpX+h853+fg34FLbHmJqLwI+yLBsPPZCy8QWhh7EbIPeS5vNDpBumsBqkV7AA4IrS/ekrdQDgJ/9fBz6LVRenZhw7SqOz/wVzzm0AHgI+hl0CszLsiESiVAPOY2f6/wQ4r05+5VHaAKBu8v8cVsyVogvAD3RbVnF8PcherAnUnViFvwrSRG53DTgK/ABb/Y+qur9cShkAzJv8h8KOpmWj2Opfff8L4htA3Yul/HehojqRheSZx1ewff7rWZbNLPk3JEmlCwCccwPY5P8Y6a78wdJu31e6rRjOuS3Yqv8wFhQq5S9yq7zg+HvYPv9lNfMpt1IFAH7y/w3Sn/yHgR+hyv+2+eZPB4GHsbP9AyjlL1Ivn/i/jzXyuaSi42ooTQBQosm/BpwFjij6bo/v6Pcp4OPAduaa1IiINZE6hx3pO46179XEXyGlCADq9vxTn/zBuv39CF360xbn3B3Y2f5D2A1ypXiuixQgn/i/B7yNHTUurEW0pCP5LdWjBwAADt1JREFUF0Xfwe0L2Eov9cm/hhX9HdUZ29b4s/13Yyn/PSzch1+kimawyf51bJFxAU38lZZsAOCPc60Hfgtr4ZriOf/5rmD7cJdDDyRF/va+B7BCv82k1/VRpBPqJ/4fYxO/LuyRNAMAP/lvwib/j9LYhSqxm8Bu1Dqi1prNcc6txtr4fhJb9a9BhX4i09hkfxRN/LKA5AIAf2PbduxWvzspR4p3Fuv29/Usy4ZDDyYlzrltwIPYXv8mtOoXmcC2En+Ava5cRhO/LCCpAMAf6doF/C/Yta1lqeq+DHwbHftrmG/qcxhr5bsLHe8TGcEa9/wQO9Z3FRjXxC+LSSYAcM6tws5z/w72gl+WRi6j2LWaR9Rta3l++2cnVuR3EDX1kWqrAdeBN5nrHXIty7LJoKOSJCQRAPg93sPYnv82Ehl3A2axHtvP6z7t5flz/fcD9wE7KMf2j0grZrGjwm8wt79/Q6eHpBnRT6TOuT6swc+j2B5vmdK8F4BnsQpdWYSv+9iH7fXvR+f6pbomsVX+D7F0/yVgWIXD0opoX0R9qnct8HnKccZ/vhEs9X9Mqf/FOeeGsFX/R7Dsjy7wkaqpYQ3CjmOr/XPYTX26nU/aEmUA4Cf/jdh+/z2U44x/vWms5/azar25MF/kdyfWxnc39hyI8vkq0iGT2KVgx4D/jBUL31CLcClKdC+oPt27Dfg9rMirL+yIOuIilvpXw595fLHnbuxM/z6syE9H+6Qq6lf7f4oFANewjn1K80uhogoA/DG//dgxv12U84X/KvA8cFzpuzk+67MNW/EfBLZQzuBPZCFTWGr/GPDnWFfQYVXzSydFEwD4Hu73YpX+2ylXsV9uDGvH+UKWZROhBxML59wG7N/+Q9i/vc70SxXMYKv7E8CfYQHAdbTaly6JIgDw+73/M/AIVulfRlPAW8CTWZbdCD2YGPh/90NYM5+dWNFnFM9JkQ6ZxVL8+aR/wX88otW+dFvQF1uf9l2DpfzvBdaFHE8H5ef9v4au+c33+fdgF/fsxU54lHG7RwTmJv13sPT+Of+xUvwSVLAAwE/+m4EvUZ6e/ou5ADwOnK7yvr//N9+OFfgdxP79daxPyqiGHfWtT+/f8L82WeXXAYlHkADAV/rvxCb/vZSnp/9CLgNPAW9WtUuXn/i3Yt0c/4N/X/v8UjY1YBjrw/8T7EKe6/7XNOlLdLoeAPj0711Y2n875e7jfh34OvBiVYv+nHMbsSubP8DcxK99fimLKWxb7xTwl9gR3xH/0EU8ErWuvhD7Sv+HgC9Svra+840ALwB/VMU+/37iP4xN/NuAQTTxS/ry1P5ZrDnPza582CmfKU36koquvSD7nv6/Bfwa5WvrO9848CrweJZlw6EH002+de9h4IPYin+Qcmd5pPymsVX+SW5d5Y9hq3y18pYkdTwAqKv0/xI2MZStre98k1iP/69mWXYt9GC6xTm3HjvS92Hspj5N/JKq/Hz+eWyF/5f+4zG0ypcS6WgA4Cf/IeDLlLetb70p7F7uL1ORNr/OuXXA3cw18VmLJn5JyyT283oO+Bvs1M4IlskbBya0ypcy6lgAUFf5/VWs0r/s57ynsDaevw9cKPsKQRO/JKqGreLPYxP932Dp/VFgIn+oE59UQdaJT+qP+e3CVsI7Kf/EUD/5nyvri4cP6jZhE//7sX79mvglVjVsdX8V661/Cfhr//E4cxO+juhJJRUeAPjJ/yA2Ge6g/JXfpZ/8/SVN24GPYDf0bcKO82nil1jMYMdur/jHf8Um+mvYz+gUFgyMV7Ufh8h8hQYAfqK4B5sMN1PuY34wt+f/H4HzZZv8nXOrsUzOfdgVvRuwjo1lD+okXrNYuv4qcyv7v8Mm/3Fsks8n/ClN9iKLKywA8JP/p7EGPxuL+rwRK+3k75wbxFb69wF3YHc0rKb8AV0RpoE3sHTzLBYw9WKnIlZjp2AG/UPfz9vNYp3zhrHWuaP+/X/CCvOGqZvgmVvZTyuNL9KcQgIAP/l/CjvqV/Yz/lDSyd9fy3uIuTP8ayl3m+aijQL/G3YMdBzbg+7xj5V1b1diRbGD2Pe4H/jX2LbKoP84f79Mxylr2M9OPpEP+/f/CX85DvY9nMECqYXezmiiFylG2wFABSf/CeB14A+AS6lP/v7fbyu2dfOr2NZNmSadbjmDPSeOY/e5LztJ+e/9Km4NEuYHCiuxzEE/9u+yBgsW+vz7A/73+pnLKKymc5csjTE3GY/V/Vo+SeeBz7j/+P/zvz+JTfDjdX/25qSev6/jdiLd01YAUOHJ//eByymvRJxza7HjmR/CijXXof39VkwD3wKexopAp4r+Ar6wdn6AsNDHufkf11vDwlsPq7Bgol6+Gq+f7GewCb6Gpesb/bVZbIJPOmAWKZOWAwD/ovRpbDJcX9iI4jUGvAh8BbiS4uTvL2Lahk36+7AmTfnetDTvMvA14ChwLYXJzQftC1nB7Vmfm5N4Cv9vItKclgKACk7+w8A3gCeB66lN/r5pz0HsYp7t2CpQq/3W1bC7Hp7EUv8TqT0nRESaDgD85H8IeIJqTP7XsVXec1mWjYQeTKP8zYs7sN78e7DV/gAq6mvXNeBxbCvoqvasRSRVTQUAvhPcDuB5rHCs7C5hVd2vZVk2ttwfDs3/+2zAVvvvZ261vxqt9ttVwyb9J4DTaNUvIolrNgBYB7yCNYcp8xnmGnYxyJeAt7Ismwg8nkXVTfr7sCr+HcxVh5f9/oVu0apfREqn4VWhc64fS4XvpNyT/wx27/eXgJOdqOpul9+G2QjsB34Fy8bk58d7Kfe/Tzdp1S8ipdVQAOAnnN/D9v7LnEqexCq6/wC70S+alZ7/NxgCDmAr/W3YpN+HrfQ16RfrErbqfwOr8I/muSAiUoRlJ3OfYv4E8OuUu4BsFKv0fxy4EcOxp2Um/TL/W4Q0hZ3r/zp2ZaxuihORUlq2BsA5NwT8CLsBrqyuAl8FXghd6e+cG8D67+8CfgHrzNePJv1uOIUFgMeB4RiCQBGRTlkyA+BXoL9PeS/3mcVWeV8CjmdZNt7tAfjjepuxCf8Xscr9vDlPLyrk64ZR4A+B72DtnaOr+xARKdqiAYBP/R/2jzLuL08DJ7DJ/3S3rg31QdU67Gx+PuFvYK5/u/bzu6cGHMOK/E5hPfy16heRSlh0C8D3iv8xsKV7w+mavNjvS1hP/44VePkJfxA7nrcLeC+2ndLH3Cq/zIWVsbqKTfyvY0V+ujdeRCplwYnHr/5/E0tNl8048AJW6V94W1/n3Grs+7YVeA+3rvB7/VvdtBfONNbG9yms14OO9olIJS2YAfCr/7/C7iovk7zS/yvASLsv/H7/fgib7P+df7sJK9pbxdwevib8OJzCVv3HsSI/He0Tkcq6LQNQt/pf0/3hdNQo8J+Ar2ZZNtrMX/Rp/LXY5L4J+Glsst/A3Dn8/LES7eHHZhj4I6zI7zIwrVW/iFTdbRmAkq7+87T/7y02+dft1a/DLjlaB7wbm/CHsNa6+f3r+WTfgyb7mM0CR7Bb+04D45r4RUTMLRkAv/r/dcq3+p/1j31+os9vxXsXFujkj/zSnJV1b/OHJvq0nMbS/W+hdL+IyG1uyQD4AOC/UL7K/1ms8n8am8jzR8+8hyb59F0FngFeA66gdL+IyILm1wDspJwd/3qwwjwprwngZeZa+Kq6X0RkCTcDAL/6/yQ6ky5pmcJ6OjwNnEXNfEREGnJzC8A5txL4e6yyXSR2s9j+/pPY8b5R7fOLiDSufrW/E6t+F4lZDTiJTfxvY/0c1MVPRKRJ9QHAXlQEJ3E7h3XwO4Z1cdTELyLSovoA4OeDjUJkaZexyv7XsSp/VfaLiLSpPgDYE2wUIgu7DnwL+DYWBExp4hcRKUYPgHNuA9b5TiQG14EXgW8yN/Grsl9EpEB5BmAH2v+X8C4Dz2NNfK6iiV9EpGPyAKCMzX8kHfnE/ypzE79S/SIiHZQHAO8KOgqpqotYmr9+xa+JX0SkC/IAoEw3/0n8zmNV/UeBG2jiFxHpujwAUAMg6bRZ7Ia+57Fz/DfQcT4RkWAUAEinTQHHsUt63gHGgBlN/CIiYeUBQG/QUUgZjWAp/mexDn6T6tUvIhKPPACYCDoKKZNL2LW8L2HV/dM6yiciEp88ABgGtoYciCQt399/FtvfH0b7+yIiUcsDgOtBRyGpGseu5H0eu6FvHO3vi4gkIQ8ArgUdhaSkBlzAUvyvozS/iEiS8gDg74KOQlKg1b6ISIlkAM65PuD/AgbCDkciU7/afw24glb7IiKlkGcAJrHK7d8MOBaJxxh2dl+rfRGRksryd5xze4GfBByLhDWBVfJ/B0v138Amfa32RURKqD4A6MECgN3hhiNdNoU16XkJeAO7kGcWmNVqX0Sk3LL6D5xz24E/B1aHGY50wQy2r/8KcASr4p9Bk76ISKXMDwBWAP8T8ESY4UiHzGIT/evAd7EAYBpN+iIilZXN/wXn3Erg28C93R+OFChP7/8QS+9fRJO+iIh4twUAAM65dcCPgc3dHY60aQyr2v8+VsV/FVv91zTpi4hIvcUCgBXARuAHKAiIWQ1r43wcm/RPYrfw1dCkLyIiS1gwAAAFARGbAM4DbwM/As5gfRw04YuISMMWDQDgZhAwhN3ytrcbA5LbzGAFfMeBP8XO6g+jVb6IiLRhyQAg5/7/9u5YpWEoCsDwH3EoDk7iIJ3EUYr6ANrNB9DJ0ZfwEXwth0KLBFxF0EEcHIqDlE6BOpwbCYJS5cYW/T8IWRLu2c7JuZeT2awDnAOXwHqrEakihvAMiIQ/IEbwgglfkpTJXAUAvA8K2gYugDOg01ZQ/0xF7OOXxAyGK+CO+PI34UuSWjF3AVBLhcAGcAqcEFsDq1++pKYJsYd/DQzT/YkoBDDhS5J+w7cLgFo6H7BC/EGwDxwDh8BOlsj+hrqdXxLJfkQk/9f6ARO+JGkRflwAfNQoCDaJrsARcAD0gLVc6yyxChgTw3dK4IY4of+IrXxJ0pLJVgB8Jk0W3AX2gH2gC2ylq9v2+plNiXb9MzFk5544oHcLPBRF8bK40CRJkiRJkiRJanoDnlKqCluNBq4AAAAASUVORK5CYII=;" parent="5PI5-z5J4yYWzpDtkafK-68" vertex="1">
          <mxGeometry x="7.610000000000014" y="6.610000000000582" width="18" height="18" as="geometry" />
        </mxCell>
        <mxCell id="5PI5-z5J4yYWzpDtkafK-71" value="" style="verticalLabelPosition=bottom;shadow=0;dashed=0;align=center;html=1;verticalAlign=top;strokeWidth=1;shape=mxgraph.mockup.misc.help_icon;" parent="5PI5-z5J4yYWzpDtkafK-57" vertex="1">
          <mxGeometry x="690" y="129" width="14" height="14" as="geometry" />
        </mxCell>
        <mxCell id="5PI5-z5J4yYWzpDtkafK-72" value="" style="verticalLabelPosition=bottom;shadow=0;dashed=0;align=center;html=1;verticalAlign=top;strokeWidth=1;shape=mxgraph.mockup.misc.help_icon;" parent="5PI5-z5J4yYWzpDtkafK-57" vertex="1">
          <mxGeometry x="690" y="172" width="14" height="14" as="geometry" />
        </mxCell>
        <mxCell id="5PI5-z5J4yYWzpDtkafK-73" value="&lt;b&gt;&lt;font color=&quot;#808080&quot; style=&quot;font-size: 27px;&quot;&gt;LOGO&lt;/font&gt;&lt;/b&gt;" style="text;html=1;align=center;verticalAlign=middle;whiteSpace=wrap;rounded=0;" parent="5PI5-z5J4yYWzpDtkafK-57" vertex="1">
          <mxGeometry x="29" y="20" width="248" height="70" as="geometry" />
        </mxCell>
        <mxCell id="5PI5-z5J4yYWzpDtkafK-54" value="&lt;span lang=&quot;EN-US&quot; style=&quot;forced-color-adjust: none; font-family: Helvetica; font-size: 26px; font-style: normal; font-variant-ligatures: normal; font-variant-caps: normal; letter-spacing: normal; orphans: 2; text-align: left; text-indent: 0px; text-transform: none; widows: 2; word-spacing: 0px; -webkit-text-stroke-width: 0px; white-space: normal; text-decoration-thickness: initial; text-decoration-style: initial; text-decoration-color: initial;&quot;&gt;Experts in Industrial IoT Solutions&lt;/span&gt;&lt;span lang=&quot;EN-US&quot; style=&quot;forced-color-adjust: none; font-size: 26px; font-style: normal; font-variant-ligatures: normal; font-variant-caps: normal; letter-spacing: normal; orphans: 2; text-align: left; text-indent: 0px; text-transform: none; widows: 2; word-spacing: 0px; -webkit-text-stroke-width: 0px; white-space: normal; text-decoration-thickness: initial; text-decoration-style: initial; text-decoration-color: initial; font-family: Arial, sans-serif;&quot;&gt;&lt;/span&gt;&lt;br class=&quot;Apple-interchange-newline&quot; style=&quot;font-size: 26px;&quot;&gt;" style="text;whiteSpace=wrap;html=1;fontColor=#1A1A1A;fontSize=26;fontStyle=1;labelBackgroundColor=none;" parent="5PI5-z5J4yYWzpDtkafK-1" vertex="1">
          <mxGeometry x="590" y="410" width="490" height="40" as="geometry" />
        </mxCell>
        <mxCell id="5PI5-z5J4yYWzpDtkafK-55" value="&lt;p class=&quot;MsoNormal&quot; style=&quot;line-height: 115%; font-size: 21px;&quot;&gt;&lt;font style=&quot;font-size: 21px;&quot;&gt;&lt;span style=&quot;font-family: Arial, sans-serif; background-color: initial;&quot;&gt;Specializing in data&amp;nbsp;&lt;/span&gt;&lt;/font&gt;&lt;span style=&quot;font-family: Arial, sans-serif; background-color: initial;&quot;&gt;integration from OT to IT, achieving smart manufacturing.&lt;/span&gt;&lt;/p&gt;" style="text;whiteSpace=wrap;html=1;align=center;fontColor=#808080;fontSize=22;" parent="5PI5-z5J4yYWzpDtkafK-1" vertex="1">
          <mxGeometry x="430" y="441" width="810" height="150" as="geometry" />
        </mxCell>
      </root>
    </mxGraphModel>
  </diagram>
</mxfile>
